<?xml version="1.0" standalone="no"?>
<!DOCTYPE svg PUBLIC "-//W3C//DTD SVG 20010904//EN"
 "http://www.w3.org/TR/2001/REC-SVG-20010904/DTD/svg10.dtd">
<svg version="1.0" xmlns="http://www.w3.org/2000/svg"
 width="712.000000pt" height="1042.000000pt" viewBox="0 0 712.000000 1042.000000"
 preserveAspectRatio="xMidYMid meet">

<g transform="translate(0.000000,1042.000000) scale(0.100000,-0.100000)"
fill="#000000" stroke="none">
<path d="M831 9924 c-172 -46 -313 -201 -344 -378 -11 -63 -10 -67 11 -82 28
-19 29 -54 2 -54 -19 0 -20 -7 -20 -96 0 -91 1 -97 25 -116 14 -11 25 -26 25
-35 0 -14 -3 -13 -25 1 l-25 16 0 -396 0 -397 26 -71 c14 -39 36 -90 50 -114
28 -47 25 -62 -12 -62 -23 0 -33 -13 -16 -23 4 -2 0 -2 -8 0 -8 3 -19 5 -25 6
-6 1 -11 -54 -11 -148 -1 -82 0 -142 3 -132 8 29 83 20 83 -10 0 -13 54 -73
62 -69 2 0 -4 -7 -13 -16 -10 -9 -19 -23 -21 -30 -3 -8 -14 -2 -32 19 -15 18
-40 39 -56 47 l-30 14 0 -613 0 -613 38 13 c20 8 101 40 180 73 105 44 145 57
148 47 3 -7 -12 -39 -33 -71 -32 -50 -38 -69 -41 -126 -5 -75 2 -84 53 -70 24
7 30 14 30 37 0 36 16 41 52 18 50 -33 267 -17 448 31 92 25 105 27 105 15 0
-7 -3 -9 -7 -6 -3 4 -11 3 -17 -2 -15 -13 -187 -58 -251 -67 -59 -7 -95 -20
-95 -32 0 -5 19 -22 42 -38 l41 -29 -173 -3 c-144 -2 -176 0 -190 13 -21 19
-30 19 -30 0 0 -8 -8 -15 -19 -15 -59 0 -182 -71 -221 -126 -47 -69 -60 -126
-60 -260 0 -88 -3 -123 -11 -118 -20 12 -88 125 -109 181 -11 30 -24 78 -29
106 -5 30 -8 -1085 -7 -2623 l1 -2675 31 -86 c72 -201 224 -350 419 -412 l70
-22 2715 0 2715 0 70 23 c208 68 357 220 431 442 18 53 19 153 21 2725 1 2317
0 2661 -13 2605 -16 -76 -70 -190 -113 -240 l-30 -35 -1 130 c-1 72 -1 406 0
742 l1 613 -57 -31 c-51 -26 -59 -28 -72 -15 -14 13 -12 20 14 57 16 24 48 54
71 68 23 14 43 30 43 34 0 14 -81 -37 -106 -66 l-23 -27 -283 96 c-156 52
-391 132 -523 176 -132 45 -244 84 -248 88 -5 4 108 70 250 146 142 76 318
170 391 210 l134 72 -34 11 c-18 5 -262 73 -543 151 -280 77 -517 143 -525
146 -19 7 9 20 355 159 149 59 274 111 278 116 8 7 -73 27 -538 135 -104 25
-221 53 -260 63 l-70 18 225 73 c124 41 227 77 228 82 2 4 13 8 25 8 20 0 111
29 95 30 -11 0 -340 67 -418 84 -36 8 -116 25 -177 37 -62 13 -110 26 -105 29
9 8 385 110 404 110 8 0 19 10 25 23 10 21 9 22 -29 18 -22 -2 -43 1 -47 6 -3
6 -51 18 -106 27 -55 10 -121 22 -147 26 -61 11 -72 18 -58 35 8 10 8 15 0 20
-20 12 8 32 53 38 24 3 51 9 60 13 14 5 17 0 17 -30 0 -33 4 -39 36 -52 25
-10 72 -15 150 -16 105 0 114 -1 114 -19 0 -12 7 -19 18 -19 10 0 22 -4 27 -8
6 -5 48 -6 94 -3 76 5 87 4 103 -14 10 -11 21 -30 24 -42 4 -13 16 -24 32 -27
102 -22 205 -35 231 -30 22 5 37 2 49 -9 9 -8 44 -20 76 -26 33 -6 61 -12 63
-14 1 -2 -93 -34 -210 -72 -290 -93 -272 -85 -212 -99 28 -7 215 -45 418 -86
202 -41 367 -78 367 -81 0 -4 -96 -45 -212 -92 -262 -105 -312 -126 -307 -132
3 -2 139 -36 304 -74 165 -39 353 -84 418 -100 l117 -29 0 184 c0 182 0 184
-22 189 -13 3 -76 16 -141 29 -66 14 -121 26 -122 28 -2 2 60 29 138 60 l142
56 3 42 c2 29 0 40 -8 35 -18 -11 -63 4 -57 20 7 17 -4 21 -116 40 -127 22
-124 20 -121 58 2 23 -5 40 -23 59 -23 24 -25 31 -15 53 6 14 20 25 29 25 15
0 18 -9 18 -52 0 -51 2 -54 35 -70 43 -20 191 -42 231 -33 27 6 29 10 29 55 0
58 -3 60 -118 60 -58 1 -93 5 -105 14 -12 9 -14 16 -7 21 5 3 8 11 5 16 -4 5
5 9 18 9 13 0 36 9 50 20 14 11 31 20 39 20 7 0 21 -9 31 -20 20 -24 87 -28
87 -6 0 8 -7 17 -16 20 -13 5 -14 9 -4 21 19 23 -7 28 -125 23 -58 -2 -105 -1
-105 2 0 4 13 19 29 34 22 21 30 24 34 13 7 -18 125 -40 162 -31 28 7 27 14
-2 108 -10 31 -22 50 -35 53 -12 4 -17 11 -13 23 13 42 -127 169 -233 212
l-57 23 -1087 3 c-809 2 -1088 -1 -1088 -9 0 -8 -4 -8 -13 -1 -9 8 -110 11
-301 12 l-287 0 7 -35 c4 -23 2 -35 -5 -35 -6 0 -11 16 -11 35 l0 35 -1302 -1
c-1106 0 -1311 -3 -1357 -15z m5379 -9 c0 -8 -9 -15 -20 -15 -11 0 -20 7 -20
15 0 8 9 15 20 15 11 0 20 -7 20 -15z m-1077 -102 c-3 -18 -10 -33 -14 -33
-11 0 -12 54 -2 101 l7 34 7 -34 c4 -19 5 -49 2 -68z m1182 57 c0 -18 -6 -26
-23 -28 -27 -4 -40 22 -22 44 19 22 45 13 45 -16z m-2291 5 c-4 -8 -7 -15 -9
-15 -2 0 -5 7 -9 15 -3 9 0 15 9 15 9 0 12 -6 9 -15z m1737 -88 c-18 -18 -23
18 -9 64 l13 44 3 -49 c2 -27 -1 -53 -7 -59z m-1656 74 c3 -5 1 -12 -4 -16
-15 -9 -1 -35 18 -35 14 0 14 -2 1 -10 -12 -8 -11 -10 7 -10 12 0 20 -6 19
-14 -4 -27 -29 -46 -60 -46 -21 0 -27 3 -18 9 10 6 8 10 -10 15 -18 5 -20 8
-9 15 11 7 9 10 -10 14 -22 4 -22 4 4 6 16 0 26 5 22 10 -3 5 -1 12 5 16 5 3
10 17 10 31 0 24 14 32 25 15z m-608 -7 c-3 -3 -12 -4 -19 -1 -8 3 -5 6 6 6
11 1 17 -2 13 -5z m1961 -22 c4 -13 -71 -17 -127 -6 -51 10 -28 19 50 19 49 0
74 -4 77 -13z m-1435 1 c-7 -2 -21 -2 -30 0 -10 3 -4 5 12 5 17 0 24 -2 18 -5z
m-3 -23 c0 -5 -7 -10 -16 -10 -8 0 -12 5 -9 10 3 6 10 10 16 10 5 0 9 -4 9
-10z m-1020 -10 c131 -21 303 -93 407 -171 50 -37 81 -51 68 -29 -3 6 2 10 13
10 18 0 42 -36 42 -65 0 -8 20 -39 45 -70 25 -30 61 -79 80 -109 33 -53 36
-54 67 -46 18 4 104 25 191 45 88 21 154 42 150 46 -7 7 -344 81 -482 106 -27
5 7 14 160 44 107 22 195 35 197 31 17 -48 29 -57 82 -64 60 -8 165 -1 193 14
9 5 17 20 17 34 0 19 4 24 18 20 9 -3 35 -8 57 -11 22 -4 73 -13 114 -21 41
-8 80 -13 87 -10 8 3 11 0 7 -10 -3 -7 0 -14 6 -14 6 0 11 -4 11 -9 0 -5 -53
-21 -117 -36 -188 -43 -264 -63 -271 -70 -13 -13 27 -23 286 -75 147 -29 273
-56 280 -60 15 -7 -3 -13 -328 -100 -123 -34 -226 -63 -228 -65 -3 -2 6 -6 19
-10 249 -57 704 -167 707 -170 2 -2 -40 -18 -95 -35 -54 -17 -102 -36 -107
-41 -6 -5 -18 -9 -29 -9 -17 0 -410 -125 -434 -138 -6 -4 188 -63 433 -131
244 -69 444 -127 444 -131 0 -3 -102 -47 -226 -97 -188 -77 -229 -90 -250 -83
-14 6 -33 10 -42 9 -9 0 0 -7 21 -14 56 -21 99 -55 92 -72 -3 -9 4 -32 16 -52
13 -20 25 -57 29 -83 l6 -47 -75 -34 c-59 -27 -81 -33 -105 -27 -137 34 -243
64 -250 71 -6 5 -2 11 7 15 12 4 17 18 17 46 0 21 7 52 15 69 14 26 14 30 0
35 -8 4 -26 4 -38 2 -33 -6 -31 39 3 57 14 8 19 14 11 15 -21 0 -108 -58 -132
-88 l-20 -26 -160 53 c-88 29 -163 51 -165 48 -9 -9 9 -297 18 -297 6 0 64 23
131 50 67 28 124 50 128 50 4 0 9 -30 11 -67 5 -87 41 -168 102 -227 25 -24
46 -46 46 -49 0 -2 -27 -23 -60 -46 -70 -49 -100 -88 -100 -129 0 -32 29 -76
63 -94 21 -11 22 -10 4 9 -10 12 -15 27 -11 37 3 9 1 23 -6 30 -8 11 -9 20 0
35 6 12 13 21 16 21 2 0 0 -9 -6 -21 -7 -11 -8 -24 -4 -27 4 -4 8 -2 11 3 17
48 45 83 82 102 38 20 52 21 152 16 71 -4 134 -2 177 7 62 11 72 11 110 -7 23
-11 40 -21 38 -24 -3 -3 5 -5 17 -6 22 -2 22 -2 2 12 -11 8 -39 29 -62 46
l-42 33 34 23 c45 31 102 106 117 155 8 28 16 38 27 35 128 -38 588 -204 582
-210 -9 -9 -779 -427 -786 -427 -3 0 -5 23 -5 50 l0 51 -37 -7 c-46 -8 -50
-11 -36 -25 15 -15 -13 -84 -42 -103 -20 -13 -25 -12 -54 12 -26 22 -33 35
-34 68 l-1 41 -57 9 -57 10 -10 -89 c-5 -48 -12 -90 -15 -93 -3 -3 -99 35
-213 85 -113 50 -211 91 -215 91 -5 0 -9 -6 -9 -14 0 -23 -51 -168 -78 -221
-93 -185 -267 -353 -457 -441 -133 -61 -245 -83 -487 -96 -120 -6 -218 -14
-218 -17 0 -3 77 -53 171 -110 120 -73 167 -106 157 -112 -7 -5 -264 -9 -572
-9 -480 0 -557 2 -553 14 14 35 19 90 12 132 l-7 47 -91 -6 c-295 -19 -546 71
-757 269 -155 146 -252 338 -286 566 -8 57 -22 110 -30 119 -13 14 -13 18 1
29 13 11 14 34 9 154 -3 77 -8 148 -11 156 -3 8 -6 71 -8 140 -2 69 -10 260
-19 425 -9 165 -17 326 -17 358 -1 47 -3 56 -14 47 -16 -13 -28 1 -19 24 5 14
9 14 22 4 13 -12 15 -7 10 34 -3 26 -2 46 2 43 4 -3 10 18 14 45 10 72 60 210
109 297 136 243 396 428 667 473 85 14 1205 77 1405 79 72 0 159 -4 195 -9z
m2433 3 c-7 -2 -21 -2 -30 0 -10 3 -4 5 12 5 17 0 24 -2 18 -5z m-28 -33 c-3
-5 -10 -10 -16 -10 -5 0 -9 5 -9 10 0 6 7 10 16 10 8 0 12 -4 9 -10z m-280
-30 c3 -5 -3 -10 -15 -10 -12 0 -18 5 -15 10 3 6 10 10 15 10 5 0 12 -4 15
-10z m692 4 c-3 -3 -12 -4 -19 -1 -8 3 -5 6 6 6 11 1 17 -2 13 -5z m388 -4
c-3 -5 -10 -10 -16 -10 -5 0 -9 5 -9 10 0 6 7 10 16 10 8 0 12 -4 9 -10z
m-805 -10 c0 -5 -4 -10 -10 -10 -5 0 -10 5 -10 10 0 6 5 10 10 10 6 0 10 -4
10 -10z m-1883 -6 c-3 -3 -12 -4 -19 -1 -8 3 -5 6 6 6 11 1 17 -2 13 -5z
m1136 -10 c13 18 14 18 20 -3 3 -13 3 -30 0 -38 -5 -14 -8 -14 -17 -1 -6 8
-19 17 -28 21 -10 3 -18 14 -18 24 0 15 2 15 14 -3 14 -19 15 -19 29 0z m-763
-4 c0 -5 10 -10 23 -10 12 0 28 -9 35 -21 11 -17 16 -18 28 -8 19 15 203 21
221 7 7 -5 16 -7 22 -4 14 9 8 -19 -9 -39 -12 -14 -12 -18 1 -26 11 -7 11 -9
-3 -9 -10 0 -18 -4 -18 -10 0 -15 -149 -11 -190 5 -19 7 -28 14 -20 14 22 2
-48 61 -72 61 -11 0 -17 4 -14 9 3 5 -1 11 -9 15 -17 6 -21 26 -5 26 6 0 10
-4 10 -10z m2410 0 c-8 -5 -24 -10 -35 -10 -17 0 -17 2 -5 10 8 5 24 10 35 10
17 0 17 -2 5 -10z m-2263 -6 c-3 -3 -12 -4 -19 -1 -8 3 -5 6 6 6 11 1 17 -2
13 -5z m1191 -48 c-15 -13 -19 -20 -10 -23 17 -6 15 -23 -3 -23 -8 0 -15 -4
-15 -10 0 -5 17 -10 37 -10 55 0 31 -13 -40 -22 -34 -4 -69 -9 -77 -10 -8 -1
-43 3 -77 10 -73 15 -96 35 -31 27 l43 -4 -29 15 c-27 15 -28 17 -11 27 17 9
16 11 -6 29 l-24 19 55 -6 c40 -4 51 -3 40 4 -18 13 -8 15 55 12 22 -1 51 2
65 7 20 8 28 7 38 -6 11 -14 9 -20 -10 -36z m-1725 37 c-7 -2 -19 -2 -25 0 -7
3 -2 5 12 5 14 0 19 -2 13 -5z m1545 0 c-10 -2 -26 -2 -35 0 -10 3 -2 5 17 5
19 0 27 -2 18 -5z m-453 -12 c-3 -6 3 -14 12 -20 16 -9 16 -10 1 -11 -9 0 -20
5 -23 10 -6 10 1 30 11 30 3 0 3 -4 -1 -9z m825 -5 c0 -8 -3 -22 -6 -31 -9
-23 -23 0 -17 26 6 22 23 26 23 5z m827 -2 c-3 -3 -12 -4 -19 -1 -8 3 -5 6 6
6 11 1 17 -2 13 -5z m-497 -24 c0 -5 -6 -10 -14 -10 -8 0 -18 5 -21 10 -3 6 3
10 14 10 12 0 21 -4 21 -10z m-346 -43 c13 1 16 -4 13 -18 -3 -10 -1 -19 4
-19 5 0 9 5 9 10 0 7 6 7 18 2 9 -5 33 -12 53 -16 29 -5 38 -12 41 -31 6 -28
-5 -40 -44 -47 -25 -5 -27 -3 -21 20 l6 26 -28 -22 c-15 -12 -39 -22 -53 -22
-31 0 -18 -16 18 -23 14 -2 5 -5 -22 -6 -45 -1 -78 16 -78 40 0 11 37 12 42 1
2 -5 15 -1 30 8 l28 17 -41 1 c-46 2 -62 9 -54 23 4 5 -5 9 -19 9 -21 0 -26 5
-25 23 1 16 2 18 6 5 3 -11 14 -18 29 -18 23 0 24 3 18 34 -5 31 -3 35 18 38
16 2 25 -3 29 -17 3 -11 13 -19 23 -18z m406 23 c0 -5 -4 -10 -10 -10 -5 0
-10 5 -10 10 0 6 5 10 10 10 6 0 10 -4 10 -10z m650 0 c0 -5 -5 -10 -11 -10
-5 0 -7 5 -4 10 3 6 8 10 11 10 2 0 4 -4 4 -10z m-630 -35 c20 -24 2 -37 -41
-30 -32 6 -39 4 -39 -9 0 -19 -47 -33 -62 -18 -16 16 10 44 37 40 12 -1 30 5
39 15 21 21 49 22 66 2z m427 -7 c-3 -8 -6 -5 -6 6 -1 11 2 17 5 13 3 -3 4
-12 1 -19z m-2152 -38 c4 -6 -5 -10 -20 -10 -15 0 -24 4 -20 10 3 6 12 10 20
10 8 0 17 -4 20 -10z m2022 -32 c-3 -7 -5 -2 -5 12 0 14 2 19 5 13 2 -7 2 -19
0 -25z m-998 16 c17 -4 31 -10 31 -15 0 -14 -43 -10 -64 6 -22 16 -15 18 33 9z
m1434 -1 c-7 -2 -19 -2 -25 0 -7 3 -2 5 12 5 14 0 19 -2 13 -5z m-1896 -9 c-3
-3 -12 -4 -19 -1 -8 3 -5 6 6 6 11 1 17 -2 13 -5z m608 -4 c3 -6 -1 -7 -9 -4
-18 7 -21 14 -7 14 6 0 13 -4 16 -10z m916 -46 c17 -9 19 -13 8 -14 -17 0 -34
-28 -24 -38 3 -3 24 -9 48 -13 28 -6 11 -7 -52 -4 -98 4 -118 10 -88 26 9 6
15 15 11 21 -4 6 1 8 15 3 16 -5 20 -3 15 8 -3 8 -1 18 5 22 6 3 11 16 11 28
1 22 1 22 14 -2 7 -13 24 -30 37 -37z m-1503 9 c-10 -2 -26 -2 -35 0 -10 3 -2
5 17 5 19 0 27 -2 18 -5z m1042 -38 c0 -16 -17 -19 -44 -9 -22 9 -10 24 20 24
15 0 24 -6 24 -15z m-1022 -7 c-3 -7 -20 -13 -38 -13 -18 0 -35 6 -37 13 -3 8
8 12 37 12 29 0 40 -4 38 -12z m1159 6 c-3 -3 -12 -4 -19 -1 -8 3 -5 6 6 6 11
1 17 -2 13 -5z m-757 -24 c0 -5 -9 -10 -20 -10 -11 0 -20 5 -20 10 0 6 9 10
20 10 11 0 20 -4 20 -10z m1049 -36 c10 -9 -56 -3 -69 7 -11 7 -4 8 25 3 22
-4 42 -8 44 -10z m371 -61 c2 -2 -2 -8 -9 -12 -18 -12 -51 -2 -51 15 0 11 7
13 28 8 15 -4 29 -9 32 -11z m-332 0 c-15 -2 -42 -2 -60 0 -18 2 -6 4 27 4 33
0 48 -2 33 -4z m-198 -52 c0 -6 -4 -13 -10 -16 -5 -3 -10 1 -10 9 0 9 5 16 10
16 6 0 10 -4 10 -9z m107 -7 c-3 -3 -12 -4 -19 -1 -8 3 -5 6 6 6 11 1 17 -2
13 -5z m43 -45 c142 -1 188 -17 54 -18 -104 -1 -201 12 -218 29 -6 6 3 6 25 0
18 -6 81 -10 139 -11z m-1477 4 c-7 -2 -21 -2 -30 0 -10 3 -4 5 12 5 17 0 24
-2 18 -5z m427 -103 c3 -47 -6 -80 -21 -80 -10 0 -12 93 -2 129 8 33 21 8 23
-49z m1385 60 c18 -8 17 -9 -7 -9 -16 -1 -28 4 -28 9 0 12 8 12 35 0z m-205
-10 c0 -14 -35 -30 -64 -30 -19 0 -26 5 -26 20 0 17 7 20 45 20 25 0 45 -4 45
-10z m-523 -46 c-3 -3 -12 -4 -19 -1 -8 3 -5 6 6 6 11 1 17 -2 13 -5z m-1097
-52 c0 -45 -14 -72 -24 -47 -13 36 -3 100 15 89 5 -3 9 -22 9 -42z m655 38 c3
-5 -3 -10 -14 -10 -12 0 -21 5 -21 10 0 6 6 10 14 10 8 0 18 -4 21 -10z m378
3 c-7 -2 -19 -2 -25 0 -7 3 -2 5 12 5 14 0 19 -2 13 -5z m-5098 -23 c-3 -5
-14 -10 -23 -10 -15 0 -15 2 -2 10 20 13 33 13 25 0z m5890 -3 c13 -10 15 -16
6 -21 -18 -12 -61 2 -61 19 0 19 30 19 55 2z m-1377 -278 c1 -8 -6 -26 -18
-39 -11 -12 -20 -27 -20 -32 0 -4 -7 -8 -15 -8 -19 0 -19 18 0 64 16 38 47 47
53 15z m977 -48 c-10 -68 -24 -86 -25 -31 0 56 9 92 22 84 6 -4 7 -25 3 -53z
m375 -42 c-11 -79 -22 -110 -36 -97 -5 6 11 143 23 182 3 11 8 15 15 8 6 -6 5
-39 -2 -93z m-1812 59 c-3 -7 -11 -13 -18 -13 -7 0 -15 6 -17 13 -3 7 4 12 17
12 13 0 20 -5 18 -12z m1861 -124 c-29 -36 -34 30 -5 81 10 18 11 15 14 -23 2
-24 -2 -50 -9 -58z m-379 61 c0 -8 -4 -15 -10 -15 -5 0 -10 7 -10 15 0 8 5 15
10 15 6 0 10 -7 10 -15z m-770 -22 c0 -5 -5 -15 -10 -23 -7 -11 -14 -12 -27
-4 -30 18 -27 34 6 34 17 0 31 -3 31 -7z m-298 -65 c-7 -7 -12 -8 -12 -2 0 14
12 26 19 19 2 -3 -1 -11 -7 -17z m218 -43 c0 -8 -7 -15 -15 -15 -8 0 -15 7
-15 15 0 8 7 15 15 15 8 0 15 -7 15 -15z m-4712 -176 c-3 -8 -7 -3 -11 10 -4
17 -3 21 5 13 5 -5 8 -16 6 -23z m37 -139 c3 -5 1 -10 -4 -10 -6 0 -11 5 -11
10 0 6 2 10 4 10 3 0 8 -4 11 -10z m4110 -365 l30 -12 -65 -32 c-36 -17 -71
-31 -77 -31 -7 0 -13 -5 -13 -11 0 -7 11 -9 30 -5 17 3 29 2 26 -3 -3 -5 -21
-12 -41 -15 -19 -4 -39 -14 -45 -24 -8 -12 -13 -14 -16 -4 -3 7 -23 12 -45 12
-24 0 -38 4 -34 10 3 6 18 10 33 10 15 0 34 5 42 10 11 7 3 10 -30 11 -52 1
-52 1 -144 26 l-68 19 58 13 c33 7 93 21 134 31 81 20 170 18 225 -5z m-479
-7 c36 -21 37 -23 15 -28 -20 -4 -21 -7 -9 -17 8 -7 34 -21 58 -32 34 -15 37
-19 15 -14 -38 8 -95 44 -95 61 0 7 -7 15 -15 18 -8 4 -15 12 -15 20 0 18 2
18 46 -8z m549 12 c-3 -5 -11 -10 -16 -10 -6 0 -7 5 -4 10 3 6 11 10 16 10 6
0 7 -4 4 -10z m-4170 -322 c3 -3 -2 -11 -10 -18 -18 -15 -59 -16 -95 -2 l-25
10 23 9 c25 10 98 11 107 1z m35 -12 c0 -2 -8 -10 -17 -17 -16 -13 -17 -12 -4
4 13 16 21 21 21 13z m3881 -366 c5 0 9 -7 9 -15 0 -8 -7 -15 -15 -15 -8 0
-15 -4 -15 -9 0 -5 -16 -9 -35 -8 -26 1 -35 5 -35 18 0 18 46 40 68 33 8 -2
18 -4 23 -4z m35 -126 c-4 -15 -2 -32 5 -41 19 -22 -6 -33 -79 -33 -59 0 -63
1 -57 20 4 12 1 27 -5 35 -9 10 -9 15 -2 15 6 0 9 7 6 15 -5 12 6 15 66 15
l72 0 -6 -26z m-391 -81 c1 -16 4 -37 7 -48 6 -16 -2 -27 -37 -53 -68 -50 -85
-92 -85 -210 0 -58 6 -119 15 -149 20 -66 74 -135 127 -162 l43 -21 -637 0
c-350 0 -639 4 -642 8 -5 8 53 42 284 165 47 25 272 147 500 271 228 124 417
226 420 226 3 0 5 -12 5 -27z m969 -182 c209 -93 486 -215 614 -271 127 -56
232 -106 232 -110 0 -4 -21 -24 -47 -44 l-46 -36 -161 1 c-89 0 -169 4 -179 8
-10 3 -23 18 -30 31 -7 16 -38 37 -79 57 -105 51 -105 51 -181 -9 -37 -29 -67
-61 -67 -70 0 -13 -8 -18 -29 -18 l-29 0 5 98 6 99 -71 11 c-39 7 -109 12
-155 12 l-85 0 5 84 c8 125 1 150 -64 213 -53 52 -55 55 -43 84 7 16 15 29 17
29 3 0 177 -76 387 -169z m-666 119 c-4 -20 -58 -27 -58 -6 0 16 11 22 41 22
12 0 19 -6 17 -16z m2032 -127 c-69 -30 -71 -29 -19 11 34 27 46 32 57 23 11
-9 3 -16 -38 -34z m-1860 25 c0 -5 -6 -11 -14 -14 -8 -3 -12 -13 -8 -26 3 -14
1 -19 -6 -14 -6 3 -13 2 -17 -4 -3 -5 -28 -12 -56 -16 -27 -4 -52 -11 -55 -15
-3 -5 -20 -9 -37 -9 -24 0 -28 3 -17 10 12 8 10 10 -10 10 -46 1 -82 49 -47
63 7 3 3 6 -8 7 -14 2 -11 4 10 9 42 10 265 9 265 -1z m1798 -150 c-23 -35
-42 -64 -43 -66 -7 -9 -36 14 -41 34 -9 34 16 65 62 80 64 20 65 17 22 -48z
m-98 6 c-8 -8 -14 -37 -14 -62 0 -74 58 -151 160 -212 21 -13 41 -25 43 -26 6
-5 -21 -95 -28 -91 -77 42 -112 52 -216 57 -97 5 -119 10 -186 40 -41 19 -77
39 -79 44 -1 5 71 69 161 141 151 122 193 151 159 109z m-1747 -75 c41 -11 59
-36 36 -50 -10 -6 -10 -9 -1 -9 20 0 14 -18 -9 -25 -19 -6 -20 -7 -2 -20 29
-21 7 -29 -26 -9 -29 17 -31 17 -98 -9 -78 -31 -119 -34 -151 -11 -22 15 -22
17 -6 29 17 12 16 13 -4 19 -12 4 -20 11 -17 16 3 5 1 11 -5 15 -26 16 7 43
70 56 55 11 171 10 213 -2z m-2892 -137 c-45 -35 -91 -65 -91 -59 0 7 111 87
119 87 3 0 -9 -13 -28 -28z m2697 -73 c-7 -5 -24 -9 -38 -8 -24 0 -24 0 10 30
34 29 35 29 38 8 2 -12 -2 -26 -10 -30z m332 -34 c0 -8 -4 -15 -10 -15 -5 0
-10 7 -10 15 0 8 5 15 10 15 6 0 10 -7 10 -15z m-3757 -474 c25 -24 26 -74 4
-99 -16 -18 -16 -20 3 -37 28 -25 26 -70 -5 -100 -19 -20 -34 -25 -73 -25 -54
0 -86 19 -97 58 -5 19 -3 22 22 22 17 0 33 -8 41 -20 24 -39 77 -15 70 32 -2
18 -10 24 -35 26 -27 3 -33 7 -33 28 0 19 5 24 24 24 30 0 50 23 41 50 -8 24
-47 27 -65 5 -7 -8 -23 -15 -36 -15 -43 0 -24 53 26 73 28 11 93 -1 113 -22z
m201 19 c42 -15 58 -62 54 -151 -4 -98 -27 -129 -94 -129 -35 0 -47 5 -68 31
-23 27 -26 39 -26 107 0 85 13 120 50 139 30 15 51 16 84 3z m2320 0 c42 -15
58 -62 54 -151 -4 -98 -27 -129 -94 -129 -35 0 -47 5 -68 31 -23 27 -26 39
-26 107 0 85 13 120 50 139 30 15 51 16 84 3z m259 -19 c25 -24 26 -74 4 -99
-16 -18 -16 -20 3 -37 28 -25 26 -70 -5 -100 -19 -20 -34 -25 -73 -25 -54 0
-86 19 -97 58 -5 19 -3 22 22 22 17 0 33 -8 41 -20 24 -39 77 -15 70 32 -2 18
-10 24 -35 26 -27 3 -33 7 -33 28 0 19 5 24 24 24 30 0 50 23 41 50 -8 24 -47
27 -65 5 -7 -8 -23 -15 -36 -15 -43 0 -24 53 26 73 28 11 93 -1 113 -22z
m-483 -121 l0 -140 -30 0 -30 0 0 110 0 110 -26 -10 c-37 -15 -46 -12 -42 11
2 15 17 27 48 40 83 33 80 37 80 -121z m-665 90 c3 -5 1 -10 -4 -10 -6 0 -11
5 -11 10 0 6 2 10 4 10 3 0 8 -4 11 -10z m2785 -67 l0 -78 -32 -2 c-41 -3 -58
12 -58 53 0 42 23 66 56 58 21 -5 24 -3 24 20 0 14 2 26 5 26 3 0 5 -35 5 -77z
m-3462 33 c2 -16 -2 -32 -9 -37 -11 -6 -10 -15 4 -43 22 -46 5 -47 -22 -1 -11
19 -27 35 -36 35 -11 0 -15 -10 -15 -35 0 -19 -4 -35 -10 -35 -6 0 -10 32 -10
76 l0 75 48 -3 c44 -3 47 -5 50 -32z m2552 19 c7 -8 10 -25 6 -40 -5 -20 -15
-26 -46 -31 -36 -6 -40 -10 -40 -35 0 -16 -4 -29 -10 -29 -6 0 -10 32 -10 75
l0 75 44 0 c26 0 48 -6 56 -15z m-2130 -10 c0 -8 6 -15 13 -16 10 0 10 -2 0
-6 -8 -3 -13 -23 -13 -48 0 -25 5 -46 13 -49 6 -3 3 -5 -8 -3 -16 2 -21 11
-23 50 -2 26 -7 47 -13 47 -5 0 -4 9 3 20 15 24 28 26 28 5z m190 0 c0 -8 6
-15 13 -16 10 0 10 -2 0 -6 -7 -2 -13 -21 -13 -42 0 -20 6 -43 13 -50 10 -10
8 -12 -8 -9 -16 2 -21 12 -23 48 -2 25 -9 48 -15 52 -9 6 -9 8 1 8 6 0 12 7
12 15 0 8 5 15 10 15 6 0 10 -7 10 -15z m2240 0 c0 -8 6 -15 13 -16 10 0 10
-2 0 -6 -8 -3 -13 -23 -13 -48 0 -25 5 -46 13 -49 6 -3 3 -5 -8 -3 -16 2 -21
11 -23 50 -2 26 -7 47 -13 47 -5 0 -4 9 3 20 15 24 28 26 28 5z m-2746 -21 c9
-8 16 -24 16 -34 0 -15 -9 -19 -42 -22 -40 -3 -41 -4 -24 -21 12 -11 26 -15
44 -11 21 4 24 3 12 -5 -20 -14 -53 -14 -68 1 -21 21 -15 75 10 92 28 20 33
20 52 0z m117 6 c14 -8 19 -21 19 -49 0 -43 -20 -66 -50 -58 -16 4 -20 0 -20
-19 0 -13 -4 -24 -10 -24 -6 0 -10 31 -10 74 0 69 2 75 23 79 12 2 23 5 25 6
2 0 12 -4 23 -9z m310 0 c15 -8 19 -21 19 -59 0 -47 0 -48 -34 -49 -62 -2 -76
53 -16 64 17 4 30 13 30 22 0 11 -7 13 -30 9 -29 -6 -42 6 -17 16 19 8 27 8
48 -3z m249 0 c26 -14 34 -57 15 -86 -18 -28 -56 -32 -75 -8 -20 23 -16 75 5
90 22 17 30 17 55 4z m128 -2 c7 -7 11 -35 11 -62 -1 -31 -3 -39 -6 -21 -8 67
-13 76 -36 73 -19 -3 -22 -10 -25 -50 -4 -67 -22 -60 -22 8 0 43 3 55 13 51 8
-3 20 -1 28 4 19 12 23 11 37 -3z m1750 -4 c41 -28 21 -104 -28 -104 -49 0
-69 76 -28 104 12 9 25 16 28 16 3 0 16 -7 28 -16z m113 6 c10 -6 19 -16 19
-22 0 -9 -3 -9 -12 0 -16 16 -48 15 -48 -2 0 -8 14 -19 30 -25 38 -13 41 -48
5 -57 -29 -7 -55 1 -55 16 0 7 6 8 19 0 21 -10 51 -4 51 11 0 5 -16 15 -35 23
-38 16 -45 39 -17 55 21 13 20 13 43 1z m194 -6 c9 -9 13 -19 10 -22 -3 -3
-11 0 -17 6 -17 17 -48 15 -48 -2 0 -8 14 -17 31 -21 35 -8 47 -28 29 -50 -16
-19 -54 -19 -70 0 -15 18 -7 19 20 3 15 -10 22 -10 32 0 11 11 9 16 -6 28 -11
8 -25 14 -32 14 -19 0 -24 28 -8 45 20 19 38 19 59 -1z m132 -5 c-12 -7 -17
-23 -17 -54 0 -25 -4 -45 -10 -45 -5 0 -10 24 -10 54 0 49 2 55 23 58 29 5 36
-1 14 -13z m104 11 c11 -6 19 -21 19 -35 0 -22 -4 -25 -35 -25 -38 0 -44 -10
-19 -31 12 -10 20 -10 35 -1 10 7 19 8 19 3 0 -10 -24 -21 -45 -21 -44 0 -61
78 -23 104 27 19 24 19 49 6z m123 -6 c10 -9 16 -33 16 -59 0 -47 -6 -50 -67
-39 -44 8 -22 64 25 64 15 0 22 5 19 13 -2 7 -19 11 -38 10 -32 -1 -33 0 -15
13 25 18 41 18 60 -2z m-3034 -38 c0 -48 8 -60 34 -50 11 4 16 19 16 50 0 24
5 44 10 44 6 0 10 -24 10 -53 0 -54 0 -54 -32 -55 -18 0 -38 4 -45 10 -15 12
-18 98 -3 98 6 0 10 -20 10 -44z m377 -38 c-2 -18 -4 -6 -4 27 0 33 2 48 4 33
2 -15 2 -42 0 -60z m-657 -1089 c0 -54 2 -60 18 -54 45 20 81 17 106 -9 25
-24 26 -31 26 -131 l0 -105 -35 0 -35 0 0 89 c0 96 -9 115 -52 109 -22 -3 -23
-7 -26 -100 l-3 -98 -34 0 -35 0 0 180 0 180 35 0 35 0 0 -61z m1210 1 c0 -55
10 -75 25 -50 12 20 75 11 100 -15 23 -23 25 -31 25 -130 l0 -105 -35 0 -35 0
0 89 c0 96 -9 115 -52 109 -22 -3 -23 -7 -26 -100 l-3 -98 -34 0 -35 0 0 180
0 180 35 0 35 0 0 -60z m680 -120 l0 -180 -35 0 c-19 0 -35 4 -35 9 0 5 -14 3
-30 -6 -68 -33 -134 27 -134 122 0 94 58 153 124 128 l30 -11 0 59 0 59 40 0
40 0 0 -180z m-2785 3 c32 -87 60 -164 63 -170 3 -9 -8 -13 -35 -13 -37 0 -41
3 -49 33 -9 31 -11 32 -71 35 l-61 3 -12 -36 c-11 -32 -15 -35 -51 -35 l-38 0
30 83 c17 45 45 121 63 169 l31 88 36 0 36 0 58 -157z m1555 -13 l0 -170 -34
0 c-43 0 -44 3 -45 190 l-2 150 41 0 40 0 0 -170z m-1401 10 l25 -75 23 78
c24 77 24 77 59 77 18 0 34 -4 34 -9 0 -28 -105 -310 -123 -328 -13 -15 -32
-23 -54 -23 -30 0 -33 3 -33 30 0 23 4 30 20 30 43 0 42 32 -3 164 -24 69 -41
129 -38 132 3 3 19 4 36 2 28 -3 32 -8 54 -78z m331 67 c31 -15 60 -71 60
-114 l0 -33 -81 0 c-86 0 -98 -10 -46 -40 25 -13 30 -13 56 2 28 15 30 15 46
-2 21 -23 13 -38 -32 -57 -53 -21 -106 -9 -143 33 -25 29 -30 43 -30 85 0 27
7 63 15 79 27 53 100 75 155 47z m277 -21 c32 -38 30 -56 -8 -56 -19 0 -37 8
-48 21 -13 16 -23 20 -40 14 -37 -11 -20 -37 39 -56 62 -20 82 -42 78 -83 -4
-44 -48 -71 -110 -70 -44 0 -55 5 -80 32 -15 18 -28 37 -28 42 0 16 67 12 74
-5 3 -9 19 -15 41 -15 54 0 43 29 -19 51 -93 34 -113 84 -54 134 28 24 39 27
82 22 38 -3 55 -11 73 -31z m516 5 c19 -18 23 -36 27 -127 l5 -105 -50 0 c-27
0 -67 -1 -87 -1 -48 -2 -88 32 -88 74 0 43 38 76 99 84 54 7 60 13 36 37 -15
15 -55 12 -55 -4 0 -5 -16 -9 -35 -9 -49 0 -44 38 10 69 31 18 113 7 138 -18z
m402 19 c4 -7 12 -7 25 0 36 19 50 12 50 -25 0 -30 -3 -35 -23 -35 -39 0 -47
-18 -47 -107 l0 -83 -35 0 -35 0 0 130 0 130 29 0 c17 0 33 -5 36 -10z m292
-25 c30 -34 25 -49 -15 -53 -23 -2 -33 2 -42 18 -14 27 -55 24 -55 -4 0 -14
14 -23 55 -37 57 -19 80 -39 80 -74 0 -51 -69 -93 -135 -81 -35 7 -85 49 -85
72 0 20 66 18 74 -2 4 -10 16 -14 38 -12 50 5 42 30 -14 48 -62 20 -88 43 -88
78 0 55 43 84 114 79 39 -4 55 -10 73 -32z m492 20 c38 -19 43 -34 50 -148 l6
-97 -37 0 c-21 0 -38 4 -38 9 0 5 -14 3 -30 -6 -36 -18 -94 -3 -111 28 -30 57
12 116 89 126 31 4 42 10 42 23 0 10 -7 20 -15 24 -18 6 -45 -2 -45 -15 0 -5
-18 -9 -40 -9 -43 0 -45 2 -30 30 24 45 105 63 159 35z m-1909 -498 c0 -32 1
-33 35 -29 30 4 36 1 45 -23 16 -42 13 -115 -5 -115 -11 0 -15 12 -15 48 0 59
-13 81 -37 66 -13 -8 -19 -26 -21 -63 -2 -36 -7 -51 -18 -51 -11 0 -14 19 -14
93 0 52 3 97 7 100 14 15 23 5 23 -26z m570 -1 c0 -30 2 -33 25 -28 41 7 55
-13 55 -79 0 -46 -3 -59 -15 -59 -11 0 -15 13 -15 54 0 57 -7 70 -34 60 -12
-5 -16 -20 -16 -60 0 -41 -4 -54 -15 -54 -12 0 -15 18 -15 100 0 82 3 100 15
100 10 0 15 -10 15 -34z m370 -65 l0 -98 -50 -2 c-56 -1 -70 13 -70 72 0 42
29 71 65 65 23 -5 25 -2 25 28 0 24 5 34 15 34 12 0 15 -18 15 -99z m-650 74
c0 -8 -7 -15 -15 -15 -8 0 -15 7 -15 15 0 8 7 15 15 15 8 0 15 -7 15 -15z
m760 -80 c0 -78 -3 -95 -15 -95 -12 0 -15 15 -15 75 l0 75 -26 -6 c-20 -5 -25
-3 -22 6 3 11 34 27 76 39 1 1 2 -42 2 -94z m162 78 c21 -19 23 -44 6 -61 -9
-9 -9 -15 0 -24 7 -7 12 -24 12 -38 0 -36 -17 -50 -62 -50 -34 0 -58 18 -58
44 0 13 28 5 34 -10 3 -9 15 -14 28 -12 32 4 33 52 1 56 -13 2 -23 10 -23 17
0 7 10 15 23 17 13 2 23 11 25 24 4 30 -22 37 -52 13 -31 -24 -45 -8 -16 21
24 24 57 26 82 3z m148 -3 c24 -24 24 -30 6 -55 -11 -16 -11 -21 0 -33 34 -33
4 -82 -50 -82 -33 0 -56 15 -56 37 0 18 27 16 34 -3 3 -9 15 -14 28 -12 32 4
33 52 1 56 -30 4 -30 30 -1 34 30 4 35 34 9 48 -17 9 -24 7 -38 -10 -20 -22
-33 -26 -33 -8 0 20 32 48 57 48 12 0 32 -9 43 -20z m170 13 c0 -23 -77 -183
-88 -183 -17 0 -9 25 29 103 l29 57 -50 0 c-38 0 -50 4 -50 15 0 12 14 15 65
15 36 0 65 -3 65 -7z m-2146 -34 c19 -22 26 -42 26 -73 0 -64 -14 -76 -85 -73
l-60 2 -3 36 c-4 48 33 95 66 85 19 -6 22 -15 22 -57 0 -43 3 -50 18 -47 27 5
29 91 3 117 -30 30 -85 28 -116 -4 -21 -20 -25 -34 -25 -79 0 -48 3 -57 27
-76 21 -16 37 -20 60 -17 34 6 45 -6 17 -17 -31 -12 -63 -6 -92 19 -52 43 -52
131 -2 185 23 25 36 30 73 30 38 0 49 -5 71 -31z m976 7 c0 -8 6 -17 13 -20
10 -5 10 -7 0 -12 -15 -7 -18 -104 -3 -104 6 0 10 -5 10 -11 0 -6 -10 -9 -22
-7 -20 3 -23 10 -26 61 -2 42 -7 57 -17 57 -8 0 -15 5 -15 10 0 6 7 10 15 10
8 0 15 7 15 15 0 8 7 15 15 15 8 0 15 -6 15 -14z m1500 -63 c13 -32 26 -61 29
-65 4 -4 18 21 31 57 17 47 29 65 42 65 16 0 18 -10 18 -85 0 -69 -3 -85 -15
-85 -11 0 -15 13 -16 53 l-1 52 -24 -52 c-13 -29 -28 -53 -33 -53 -5 0 -20 28
-34 63 l-26 62 -1 -62 c0 -35 -4 -63 -10 -63 -6 0 -10 35 -10 85 0 104 17 113
50 28z m520 38 c15 -29 13 -35 -26 -83 l-37 -43 34 -3 c63 -6 56 -22 -9 -22
-34 0 -62 3 -62 6 0 3 18 28 41 55 22 27 39 57 37 66 -4 23 -46 30 -54 9 -7
-19 -24 -21 -24 -3 0 39 81 53 100 18z m128 7 c15 -15 16 -54 2 -63 -6 -4 -4
-15 5 -29 13 -19 13 -25 -1 -44 -10 -14 -26 -22 -44 -22 -18 0 -34 8 -44 22
-14 19 -14 25 -1 44 9 14 11 25 5 29 -14 9 -13 48 2 63 7 7 24 12 38 12 14 0
31 -5 38 -12z m250 -25 c3 -25 -5 -40 -34 -72 l-36 -41 41 0 c22 0 41 -4 41
-10 0 -5 -25 -10 -55 -10 -30 0 -55 3 -55 8 0 4 18 29 40 56 23 27 39 56 38
65 -4 22 -46 27 -54 7 -7 -19 -24 -21 -24 -3 0 24 24 38 60 35 31 -3 35 -6 38
-35z m130 25 c15 -15 16 -112 2 -139 -15 -27 -64 -25 -84 3 -9 12 -16 41 -16
63 0 52 23 85 59 85 15 0 32 -5 39 -12z m126 6 c29 -11 19 -61 -20 -104 l-36
-40 41 0 c22 0 41 -4 41 -10 0 -5 -25 -10 -55 -10 -30 0 -55 3 -55 8 0 4 18
29 40 56 23 27 39 56 38 65 -4 22 -46 27 -54 7 -7 -19 -24 -21 -24 -3 0 31 44
47 84 31z m148 -19 c8 -19 8 -28 -2 -40 -10 -12 -10 -19 -2 -27 16 -16 15 -53
-2 -67 -20 -17 -77 -10 -90 11 -14 23 2 37 18 15 16 -20 52 -23 59 -4 7 19 -4
34 -33 45 l-25 10 28 11 c35 14 38 51 3 51 -13 0 -27 -7 -30 -16 -3 -8 -10
-12 -16 -9 -7 4 -7 13 0 26 17 30 77 26 92 -6z m-3624 3 c7 -7 12 -38 12 -71
l0 -58 -52 3 c-47 3 -53 6 -56 26 -4 30 12 49 49 57 16 4 29 10 29 15 0 17
-22 22 -46 9 -30 -16 -46 -2 -20 17 24 17 68 18 84 2z m62 -15 c26 -70 27 -71
40 -20 7 27 18 47 26 47 18 0 18 -3 -11 -91 -26 -77 -54 -117 -74 -104 -17 10
-13 22 9 28 25 6 25 23 0 89 -11 29 -20 59 -20 66 0 22 20 12 30 -15z m198 15
c5 -7 12 -24 14 -38 3 -23 0 -25 -45 -28 -44 -3 -46 -4 -36 -24 9 -16 17 -19
45 -13 34 6 48 -8 18 -19 -35 -13 -73 -6 -85 16 -17 31 -13 77 7 99 19 22 66
25 82 7z m136 -10 c15 -24 0 -34 -22 -15 -24 22 -44 22 -40 0 2 -10 13 -19 25
-21 34 -5 57 -36 43 -61 -15 -29 -85 -30 -100 -1 -12 23 0 27 29 8 19 -12 51
-5 51 10 0 5 -18 16 -40 25 -42 16 -52 41 -28 65 17 17 69 11 82 -10z m273 10
c6 -7 13 -39 16 -70 l5 -56 -50 1 c-85 3 -94 60 -13 82 33 10 35 12 20 25 -14
11 -20 11 -37 1 -24 -15 -35 -7 -18 14 15 18 64 20 77 3z m83 -58 c0 -56 -3
-70 -15 -70 -12 0 -15 14 -15 70 0 56 3 70 15 70 12 0 15 -14 15 -70z m214 48
c15 -25 -1 -34 -24 -13 -19 17 -50 15 -50 -3 0 -5 18 -16 40 -25 32 -12 40
-21 40 -40 0 -14 -7 -28 -16 -31 -28 -11 -71 -6 -84 9 -17 21 -4 32 20 17 11
-7 27 -12 36 -12 23 0 13 34 -11 38 -22 4 -55 30 -55 43 0 37 83 50 104 17z
m274 10 c5 -7 12 -39 14 -70 l3 -56 -49 1 c-80 3 -92 59 -17 81 17 5 31 13 31
18 0 15 -30 21 -45 8 -22 -19 -41 -7 -21 13 20 20 69 23 84 5z m907 -33 c0
-13 -8 -21 -22 -23 -19 -3 -23 1 -23 23 0 22 4 26 23 23 14 -2 22 -10 22 -23z
m413 3 c5 -7 12 -36 13 -64 l4 -52 -47 -1 c-44 -1 -48 2 -54 26 -8 30 15 53
54 53 14 0 22 5 20 13 -6 17 -39 22 -48 7 -4 -7 -13 -11 -20 -8 -20 6 17 38
44 38 13 0 28 -6 34 -12z m112 2 c0 -4 -9 -10 -20 -13 -17 -4 -20 -14 -20 -56
0 -39 -4 -51 -15 -51 -12 0 -15 14 -15 64 l0 64 35 0 c19 0 35 -4 35 -8z m363
-97 c6 -11 -11 -53 -21 -53 -5 0 -7 14 -4 30 4 29 16 39 25 23z m-2293 -248
c0 -20 5 -25 24 -25 33 0 56 -25 56 -61 0 -54 -15 -69 -65 -67 l-45 1 0 89 c0
72 3 88 15 88 9 0 15 -9 15 -25z m470 -65 c0 -53 -4 -90 -10 -90 -6 0 -10 37
-10 90 0 53 4 90 10 90 6 0 10 -37 10 -90z m1160 61 c0 -24 3 -28 23 -24 33 7
57 -21 57 -66 0 -48 -14 -61 -67 -61 l-43 0 0 90 c0 73 3 90 15 90 10 0 15
-10 15 -29z m1380 19 c0 -5 -11 -10 -25 -10 -26 0 -35 -24 -12 -34 10 -5 10
-7 0 -12 -8 -3 -13 -26 -13 -60 0 -30 -4 -54 -10 -54 -5 0 -10 24 -10 54 0 34
-5 57 -12 60 -10 5 -10 7 0 12 6 3 12 14 12 23 0 10 3 21 7 24 10 11 63 8 63
-3z m150 -78 l0 -89 -37 -1 c-49 -2 -63 12 -63 63 0 49 18 70 55 63 22 -5 25
-2 25 23 0 16 5 29 10 29 6 0 10 -36 10 -88z m1120 58 c0 -27 2 -30 25 -24 39
10 55 -11 55 -72 0 -30 -4 -54 -10 -54 -5 0 -10 19 -10 43 0 51 -11 70 -36 65
-15 -2 -20 -14 -22 -56 -5 -87 -22 -58 -22 38 0 53 4 90 10 90 6 0 10 -14 10
-30z m-5320 -65 c0 -69 -3 -85 -15 -85 -12 0 -15 16 -15 85 0 69 3 85 15 85
12 0 15 -16 15 -85z m1436 8 c16 -43 31 -81 32 -85 2 -4 -3 -8 -11 -8 -9 0
-19 9 -22 20 -5 15 -15 20 -42 20 -26 0 -36 -5 -40 -20 -5 -17 -33 -30 -33
-15 0 23 64 165 74 165 8 0 26 -35 42 -77z m554 67 c0 -5 -13 -10 -30 -10
l-30 0 0 -75 c0 -43 -4 -75 -10 -75 -6 0 -10 32 -10 75 l0 75 -30 0 c-16 0
-30 5 -30 10 0 6 30 10 70 10 40 0 70 -4 70 -10z m250 0 c0 -5 -7 -10 -15 -10
-8 0 -15 5 -15 10 0 6 7 10 15 10 8 0 15 -4 15 -10z m840 -75 c0 -69 -3 -85
-15 -85 -12 0 -15 16 -15 85 0 69 3 85 15 85 12 0 15 -16 15 -85z m-2170 61
c0 -8 6 -17 13 -20 10 -5 10 -7 0 -12 -15 -7 -18 -94 -3 -94 6 0 10 -5 10 -11
0 -6 -10 -9 -22 -7 -20 3 -23 10 -26 53 -2 27 -9 53 -15 58 -9 7 -9 10 1 14 6
2 12 11 12 19 0 8 7 14 15 14 8 0 15 -6 15 -14z m2030 3 c0 -7 8 -18 18 -25
16 -13 16 -13 0 -14 -15 0 -18 -9 -18 -45 0 -33 4 -45 15 -45 8 0 15 -5 15
-11 0 -6 -10 -9 -22 -7 -20 3 -23 10 -26 56 -2 41 -7 52 -20 52 -16 1 -16 2 1
14 9 7 17 18 17 25 0 6 5 11 10 11 6 0 10 -5 10 -11z m1590 -3 c0 -8 6 -17 13
-20 10 -5 10 -7 0 -12 -15 -7 -18 -94 -3 -94 6 0 10 -4 10 -10 0 -16 -37 -11
-44 6 -3 9 -6 33 -6 54 0 21 -6 41 -12 44 -10 5 -10 7 0 12 6 3 12 12 12 20 0
8 7 14 15 14 8 0 15 -6 15 -14z m-4354 -27 c8 -7 14 -7 19 1 8 14 48 13 63 -2
18 -18 16 -118 -3 -118 -12 0 -15 11 -13 50 3 55 -5 69 -30 54 -11 -7 -18 -27
-20 -58 -4 -63 -20 -58 -24 7 -3 44 -6 52 -23 52 -17 0 -20 -8 -23 -52 -2 -38
-7 -53 -18 -53 -11 0 -14 15 -14 63 l0 64 37 1 c20 1 42 -3 49 -9z m212 -1 c7
-7 12 -35 12 -64 l0 -52 -47 2 c-46 1 -48 2 -48 31 0 25 5 32 33 40 35 10 44
35 12 35 -11 0 -20 -4 -20 -10 0 -5 -7 -10 -15 -10 -8 0 -15 4 -15 8 0 16 25
32 50 32 14 0 31 -5 38 -12z m63 -15 c5 -16 12 -35 15 -43 4 -10 11 0 21 28 8
23 21 42 28 42 11 0 8 -16 -10 -69 -12 -38 -28 -78 -34 -90 -12 -21 -51 -30
-51 -11 0 6 6 10 14 10 25 0 27 31 6 87 -23 61 -24 73 -10 73 6 0 15 -12 21
-27z m249 7 c16 -30 13 -110 -4 -110 -11 0 -16 15 -18 53 -3 44 -6 52 -23 52
-17 0 -20 -8 -23 -52 -2 -38 -7 -53 -18 -53 -11 0 -14 15 -14 64 l0 63 45 1
c34 1 47 -3 55 -18z m134 -2 c33 -46 7 -108 -44 -108 -37 0 -60 24 -60 62 0
62 71 93 104 46z m400 6 c9 -8 16 -24 16 -35 0 -15 -7 -19 -32 -20 -18 -1 -37
-1 -41 0 -5 1 -7 -6 -5 -16 3 -14 12 -17 42 -16 33 2 36 1 26 -12 -16 -20 -64
-19 -84 1 -21 20 -20 73 1 96 20 22 56 23 77 2z m395 7 c8 -5 16 -32 19 -64
l4 -55 -43 0 c-45 -1 -69 11 -69 34 0 21 29 44 56 44 13 0 24 5 24 10 0 17
-29 23 -45 10 -22 -19 -41 -7 -21 13 19 18 53 22 75 8z m138 -2 c19 -17 18
-119 -2 -119 -12 0 -15 13 -15 55 0 38 -4 55 -13 55 -24 0 -37 -24 -37 -67 0
-24 -4 -43 -10 -43 -6 0 -10 28 -10 63 l0 64 37 1 c20 1 42 -3 50 -9z m253
-45 c0 -52 1 -55 23 -52 19 3 22 10 25 56 2 37 7 52 18 52 11 0 14 -15 14 -65
l0 -65 -45 0 c-34 0 -47 5 -55 19 -11 22 -14 94 -3 104 16 17 23 3 23 -49z
m170 48 c0 -4 -9 -13 -20 -20 -15 -9 -20 -23 -20 -57 0 -25 -4 -45 -10 -45 -6
0 -10 28 -10 63 l0 64 30 1 c17 0 30 -2 30 -6z m50 -57 c0 -51 -3 -65 -15 -65
-12 0 -15 14 -15 65 0 51 3 65 15 65 12 0 15 -14 15 -65z m117 54 c15 -13 19
-119 4 -119 -5 0 -11 23 -13 50 -6 58 -12 68 -36 54 -11 -7 -18 -27 -20 -58
-5 -69 -22 -56 -22 17 l0 64 37 1 c20 1 42 -3 50 -9z m151 -54 c3 -76 -13
-109 -54 -113 -19 -2 -36 3 -43 12 -12 14 -8 15 25 13 28 -1 39 2 42 14 2 12
-4 15 -26 11 -36 -5 -54 16 -54 63 0 50 17 66 66 63 l41 -3 3 -60z m294 13 c3
-46 6 -53 25 -56 20 -3 22 2 25 49 2 31 8 54 16 57 9 3 12 -14 12 -63 l0 -66
-47 3 -48 3 -3 63 c-2 36 1 62 7 62 5 0 11 -24 13 -52z m456 40 c5 -7 12 -36
13 -64 l4 -52 -40 0 c-44 -1 -65 12 -65 39 0 21 28 39 60 39 13 0 20 5 18 13
-6 17 -39 22 -48 7 -4 -7 -13 -11 -20 -8 -20 6 17 38 44 38 13 0 28 -6 34 -12z
m210 -1 c14 -10 17 -117 2 -117 -5 0 -10 23 -10 50 0 38 -4 52 -16 57 -24 9
-44 -23 -44 -69 0 -58 -19 -45 -22 15 -3 44 -6 52 -23 52 -17 0 -20 -8 -23
-52 -2 -38 -7 -53 -18 -53 -11 0 -14 15 -14 63 l0 63 78 0 c42 -1 83 -5 90 -9z
m196 -9 c15 -24 -1 -36 -18 -13 -8 11 -19 16 -30 12 -39 -15 -32 -87 8 -87 14
0 26 5 28 12 2 6 10 9 17 7 23 -8 -17 -39 -49 -39 -33 0 -50 23 -50 66 0 56
67 85 94 42z m130 0 c34 -48 8 -108 -45 -108 -53 0 -78 71 -39 110 27 27 65
26 84 -2z m136 3 c16 -31 13 -111 -4 -111 -11 0 -16 15 -18 53 -3 44 -6 52
-23 52 -17 0 -20 -8 -23 -52 -4 -75 -22 -66 -22 10 l0 64 40 1 c30 1 42 -3 50
-17z m140 -46 c0 -51 -3 -65 -15 -65 -12 0 -15 13 -15 58 0 32 3 62 7 65 17
17 23 2 23 -58z m254 43 c26 -37 20 -48 -25 -48 -33 0 -40 -3 -37 -17 2 -13
13 -18 36 -18 39 0 37 -19 -2 -23 -58 -7 -89 65 -46 108 26 26 55 25 74 -2z
m114 16 c20 -4 22 -10 22 -64 0 -74 -18 -80 -22 -7 -3 44 -6 52 -23 52 -17 0
-20 -8 -23 -52 -2 -38 -7 -53 -18 -53 -11 0 -14 15 -14 64 0 63 0 64 28 64 15
0 37 -2 50 -4z m286 -16 c26 -37 20 -48 -25 -48 -33 0 -40 -3 -37 -17 2 -13
13 -18 36 -18 39 0 37 -19 -2 -23 -58 -7 -89 65 -46 108 26 26 55 25 74 -2z
m124 10 c14 -12 17 -118 2 -118 -5 0 -10 23 -10 50 0 36 -4 52 -15 56 -26 10
-45 -16 -45 -62 0 -24 -4 -44 -10 -44 -6 0 -10 28 -10 63 l0 63 38 1 c20 1 43
-3 50 -9z m134 -5 c38 -34 16 -113 -32 -113 -37 0 -60 24 -60 62 0 58 52 87
92 51z m70 -35 c3 -49 5 -53 28 -53 23 0 25 4 28 53 4 74 22 65 22 -11 l0 -64
-37 -1 c-51 -2 -63 11 -63 74 0 69 18 70 22 2z m216 -18 c4 -89 -24 -126 -82
-104 -27 10 -18 22 15 20 18 0 34 5 36 12 3 8 -6 12 -26 12 -34 0 -51 22 -51
66 0 42 27 65 69 61 l36 -4 3 -63z m-2708 -44 c0 -25 -12 -46 -26 -46 -7 0
-11 7 -9 15 3 8 7 22 10 30 6 19 25 20 25 1z m-2300 -184 c0 -26 3 -28 29 -24
48 7 78 -58 51 -109 -9 -15 -20 -19 -55 -17 l-45 1 0 89 c0 52 4 88 10 88 6 0
10 -13 10 -28z m400 -1 c0 -25 3 -28 25 -23 40 7 55 -13 55 -74 0 -41 -4 -54
-15 -54 -12 0 -15 13 -15 55 0 38 -4 55 -13 55 -24 0 -37 -24 -37 -67 0 -24
-4 -43 -10 -43 -6 0 -10 37 -10 90 0 53 4 90 10 90 6 0 10 -13 10 -29z m1180
-59 l0 -89 -45 -1 c-35 -2 -46 2 -55 17 -26 49 0 111 47 111 18 0 23 5 23 25
0 16 6 25 15 25 12 0 15 -16 15 -88z m180 60 c0 -26 3 -28 29 -24 50 7 79 -58
45 -106 -11 -17 -24 -21 -55 -20 l-39 1 0 89 c0 52 4 88 10 88 6 0 10 -13 10
-28z m470 -24 l0 -52 28 27 c35 34 65 37 34 4 -27 -29 -27 -38 -1 -71 29 -37
13 -48 -17 -13 -26 30 -44 28 -44 -4 0 -10 -4 -19 -10 -19 -6 0 -10 37 -10 90
0 53 4 90 10 90 6 0 10 -23 10 -52z m-2490 18 c0 -8 6 -17 13 -20 10 -5 10 -7
0 -12 -15 -7 -18 -94 -3 -94 6 0 10 -5 10 -11 0 -6 -10 -9 -22 -7 -20 3 -23
10 -26 53 -2 27 -9 53 -15 58 -9 7 -9 10 1 14 6 2 12 11 12 19 0 8 7 14 15 14
8 0 15 -6 15 -14z m590 -1 c0 -8 7 -15 15 -15 8 0 15 -4 15 -10 0 -5 -7 -10
-15 -10 -11 0 -15 -12 -15 -45 0 -33 4 -45 15 -45 8 0 15 -5 15 -11 0 -6 -10
-9 -22 -7 -20 3 -23 10 -26 56 -2 37 -7 52 -18 52 -7 0 -14 5 -14 10 0 6 7 10
15 10 8 0 15 7 15 15 0 8 5 15 10 15 6 0 10 -7 10 -15z m780 1 c0 -8 6 -17 13
-20 10 -5 10 -7 0 -12 -15 -7 -18 -94 -3 -94 6 0 10 -5 10 -11 0 -6 -10 -9
-22 -7 -20 3 -23 10 -26 53 -2 27 -9 53 -15 58 -9 7 -9 10 1 14 6 2 12 11 12
19 0 8 7 14 15 14 8 0 15 -6 15 -14z m-1238 -33 c20 -18 24 -64 8 -94 -13 -24
-72 -26 -91 -3 -20 24 -16 84 6 100 25 19 54 18 77 -3z m334 -8 c24 -37 12
-55 -37 -55 -37 0 -40 -2 -28 -16 9 -11 22 -14 42 -10 20 4 27 2 25 -7 -6 -16
-66 -21 -84 -6 -19 16 -18 78 3 101 23 26 59 23 79 -7z m393 12 c6 -8 12 -24
13 -38 2 -18 -2 -24 -19 -25 -13 -1 -32 -2 -43 -3 -13 -1 -18 -6 -13 -17 4
-12 14 -15 40 -11 24 4 33 2 30 -6 -2 -7 -20 -13 -40 -15 -29 -3 -39 2 -52 22
-19 29 -14 65 11 90 19 19 58 21 73 3z m188 2 c19 -17 18 -119 -2 -119 -12 0
-15 13 -15 55 0 38 -4 55 -13 55 -24 0 -37 -24 -37 -67 0 -24 -4 -43 -10 -43
-6 0 -10 28 -10 63 l0 64 37 1 c20 1 42 -3 50 -9z m131 -1 c5 -7 13 -23 16
-35 7 -22 4 -23 -38 -23 -47 0 -52 -4 -37 -29 6 -10 19 -12 41 -8 23 5 30 3
27 -6 -2 -7 -21 -12 -43 -12 -32 0 -41 4 -52 28 -14 30 -9 58 14 82 19 18 58
20 72 3z m62 5 c0 -5 4 -15 9 -22 8 -12 13 -11 29 10 27 32 39 18 16 -19 -16
-29 -16 -31 5 -61 18 -25 19 -31 7 -31 -8 0 -22 10 -30 21 l-14 21 -14 -21
c-7 -11 -19 -21 -26 -21 -10 0 -8 9 7 33 19 32 19 33 1 57 -24 30 -25 40 -5
40 8 0 15 -3 15 -7z m322 -10 c10 -9 18 -20 18 -25 0 -14 -22 -9 -35 9 -25 34
-63 -5 -51 -52 6 -25 39 -35 51 -15 3 6 13 10 21 10 12 0 12 -4 4 -20 -8 -14
-21 -20 -45 -20 -39 0 -55 20 -55 69 0 54 53 80 92 44z m130 0 c21 -19 24 -71
5 -97 -21 -28 -78 -18 -95 17 -31 64 38 127 90 80z m272 -5 c26 -36 20 -48
-23 -48 -22 0 -42 -4 -45 -9 -10 -16 23 -33 50 -27 19 5 25 3 22 -6 -3 -7 -20
-14 -38 -16 -40 -4 -60 16 -60 62 0 59 63 89 94 44z m236 12 c0 -5 -9 -12 -20
-15 -16 -5 -20 -15 -20 -56 0 -37 -4 -49 -15 -49 -12 0 -15 14 -15 64 l0 64
35 0 c19 0 35 -4 35 -8z m104 -12 c27 -38 20 -48 -29 -48 -25 0 -45 -4 -45 -9
0 -18 30 -33 56 -27 19 5 25 3 22 -6 -3 -7 -20 -14 -38 -16 -40 -4 -60 16 -60
62 0 59 63 89 94 44z m124 10 c7 -7 12 -35 12 -64 l0 -52 -47 2 c-46 1 -48 2
-48 31 0 25 5 32 33 40 17 5 32 15 32 22 0 16 -32 17 -48 1 -17 -17 -28 -2
-12 17 15 18 61 20 78 3z m250 0 c7 -7 12 -22 12 -35 0 -20 -5 -23 -40 -23
-41 0 -46 -5 -31 -29 6 -10 19 -12 41 -8 23 5 30 3 27 -6 -2 -7 -21 -12 -43
-12 -32 0 -41 5 -51 27 -14 28 -3 75 20 90 18 12 52 9 65 -4z m102 4 c0 -4 -9
-13 -20 -20 -15 -9 -20 -23 -20 -57 0 -25 -4 -45 -10 -45 -6 0 -10 28 -10 63
l0 64 30 1 c17 0 30 -2 30 -6z m30 -112 c0 -5 -4 -10 -10 -10 -5 0 -10 5 -10
10 0 6 5 10 10 10 6 0 10 -4 10 -10z m-2239 -613 c18 -12 44 -38 56 -56 21
-31 23 -45 23 -161 0 -116 -2 -130 -23 -161 -12 -18 -38 -44 -56 -56 -33 -22
-41 -23 -271 -23 -230 0 -238 1 -271 23 -18 12 -44 38 -56 56 -21 31 -23 45
-23 161 0 116 2 130 23 161 12 18 38 44 56 56 33 22 41 23 271 23 230 0 238
-1 271 -23z m1005 -3 c64 -47 69 -63 69 -214 0 -151 -5 -167 -69 -214 -26 -20
-40 -21 -346 -21 -306 0 -320 1 -346 21 -62 46 -69 64 -72 207 -3 125 -2 134
20 167 13 19 39 45 58 58 34 23 34 23 346 20 298 -3 314 -4 340 -24z m2568 -8
c55 -41 66 -77 66 -206 0 -129 -11 -165 -66 -206 l-37 -29 -1098 0 c-1093 0
-1098 0 -1125 21 -60 44 -69 66 -72 186 -5 135 1 168 35 209 52 62 -11 59
1174 56 l1086 -2 37 -29z m-2488 -632 c64 -47 69 -63 69 -214 0 -151 -5 -167
-69 -214 -27 -21 -35 -21 -816 -21 -784 0 -789 0 -817 21 -64 47 -73 75 -73
214 0 116 2 130 23 161 12 18 38 44 56 56 l34 23 783 -2 c773 -3 783 -3 810
-24z m2068 -8 c55 -41 66 -77 66 -206 0 -129 -11 -165 -66 -206 l-37 -29 -848
0 c-840 0 -848 0 -875 21 -60 44 -69 66 -72 186 -5 135 1 168 35 209 52 61 11
59 924 56 l836 -2 37 -29z m-2397 -785 c2 -10 20 -25 39 -34 20 -10 41 -31 51
-51 9 -19 24 -37 34 -39 11 -3 19 -10 19 -17 0 -7 -8 -14 -19 -17 -10 -2 -25
-20 -34 -39 -10 -20 -31 -41 -51 -51 -19 -9 -37 -24 -39 -34 -3 -11 -10 -19
-17 -19 -7 0 -14 8 -17 19 -2 10 -20 25 -39 34 -20 10 -41 31 -51 51 -9 19
-24 37 -34 39 -11 3 -19 10 -19 17 0 7 8 14 19 17 10 2 25 20 34 39 10 20 31
41 51 51 19 9 37 24 39 34 3 11 10 19 17 19 7 0 14 -8 17 -19z m-1155 -58 l21
-47 17 44 c17 44 18 45 69 48 46 3 51 1 51 -18 0 -11 -7 -23 -15 -26 -22 -9
-20 -93 2 -109 30 -22 9 -45 -43 -45 l-46 0 7 50 c4 28 5 50 2 50 -3 0 -13
-23 -22 -51 -22 -64 -41 -62 -77 11 -26 53 -27 54 -27 23 -1 -18 4 -33 9 -33
6 0 10 -11 10 -25 0 -22 -4 -25 -40 -25 -36 0 -40 3 -40 25 0 14 5 25 10 25 6
0 10 22 10 49 0 28 -4 53 -10 56 -5 3 -10 15 -10 26 0 16 7 19 51 19 l50 0 21
-47z m1572 -10 c-21 -31 -25 -46 -21 -82 3 -23 14 -56 26 -72 26 -36 10 -39
-17 -4 -39 50 -37 131 5 177 29 32 33 19 7 -19z m270 3 c39 -52 18 -167 -33
-184 -8 -3 -3 9 9 26 12 16 24 50 27 73 4 36 0 51 -21 82 -30 44 -14 46 18 3z
m-114 -48 c0 -17 5 -27 13 -25 15 3 22 -62 8 -76 -8 -8 -11 -6 -11 6 0 9 -7
17 -15 17 -11 0 -15 11 -15 38 l0 37 -20 -25 c-11 -14 -23 -37 -26 -52 -4 -15
-10 -25 -15 -22 -17 10 -9 59 18 111 26 49 29 51 45 36 10 -9 18 -29 18 -45z
m-1150 -40 c26 -82 27 -88 10 -88 -12 0 -20 9 -22 23 -2 18 -10 23 -40 25 -33
3 -38 0 -44 -22 -3 -14 -12 -26 -20 -26 -18 0 -18 0 13 97 25 76 30 84 51 81
20 -3 28 -16 52 -90z m130 82 c0 -5 -7 -10 -15 -10 -12 0 -15 -14 -15 -65 0
-51 3 -65 15 -65 8 0 15 -7 15 -15 0 -11 -11 -15 -40 -15 -29 0 -40 4 -40 15
0 8 5 15 10 15 6 0 10 28 10 65 0 37 -4 65 -10 65 -5 0 -10 5 -10 10 0 6 18
10 40 10 22 0 40 -4 40 -10z m2668 -83 l52 -53 -25 -24 -26 -24 -32 32 -31 32
-43 -42 -43 -42 32 -33 c30 -31 32 -35 20 -66 -9 -24 23 4 141 121 84 83 159
152 168 152 9 0 23 -8 32 -18 16 -17 8 -27 -141 -175 -87 -86 -162 -157 -167
-157 -16 0 -175 164 -175 180 0 20 150 170 170 170 9 0 39 -24 68 -53z m-933
13 l0 -30 -185 0 -185 0 0 30 0 30 185 0 185 0 0 -30z m1585 -105 l0 -125 -68
0 c-40 0 -73 5 -80 12 -15 15 -16 132 -2 159 8 14 21 19 55 19 38 0 45 -3 45
-20 0 -16 -7 -20 -35 -20 l-35 0 0 -55 c0 -54 0 -55 30 -55 17 0 33 -7 39 -17
8 -13 10 14 11 98 0 117 3 129 27 129 10 0 13 -27 13 -125z m266 114 c10 -17
-13 -36 -27 -22 -12 12 -4 33 11 33 5 0 12 -5 16 -11z m82 -111 c-3 -108 -5
-123 -20 -126 -16 -3 -18 8 -18 116 0 120 2 132 27 132 11 0 13 -24 11 -122z
m-676 35 c32 -32 58 -62 58 -68 0 -6 -35 -46 -79 -89 -61 -60 -84 -77 -102
-74 -43 6 -34 35 32 103 l63 65 -33 34 c-29 30 -31 35 -20 59 7 15 15 27 18
27 3 0 31 -26 63 -57z m502 21 c13 -5 16 -23 16 -96 l0 -89 -72 3 -73 3 0 50
0 50 48 3 c42 3 47 1 47 -17 0 -17 -6 -21 -30 -21 -20 0 -30 -5 -30 -15 0 -10
10 -15 29 -15 16 0 32 -6 34 -12 3 -7 6 17 6 55 l1 67 -50 0 c-43 0 -50 3 -50
20 0 18 7 20 54 20 30 0 61 -3 70 -6z m96 -89 c0 -88 -1 -95 -20 -95 -18 0
-20 7 -20 88 0 90 3 102 27 102 10 0 13 -23 13 -95z m166 38 c10 -32 20 -61
24 -65 3 -4 14 22 24 57 14 50 23 65 37 65 11 0 19 -3 19 -6 0 -15 -65 -220
-73 -231 -5 -7 -25 -13 -43 -13 -27 0 -34 4 -34 20 0 13 7 20 19 20 11 0 22 4
25 8 3 5 -7 45 -20 91 -25 79 -26 111 -5 111 6 0 18 -26 27 -57z m334 -43 c0
-73 -3 -90 -15 -90 -8 0 -15 4 -15 9 0 6 -12 4 -26 -4 -44 -23 -84 4 -84 58 0
46 17 67 53 67 18 0 38 -5 45 -12 9 -9 12 -4 12 25 0 26 4 37 15 37 12 0 15
-17 15 -90z m-4793 28 c-3 -7 -5 -2 -5 12 0 14 2 19 5 13 2 -7 2 -19 0 -25z
m30 0 c-3 -7 -5 -2 -5 12 0 14 2 19 5 13 2 -7 2 -19 0 -25z m120 0 c-3 -7 -5
-2 -5 12 0 14 2 19 5 13 2 -7 2 -19 0 -25z m-267 7 c0 -8 -4 -15 -10 -15 -5 0
-10 7 -10 15 0 8 5 15 10 15 6 0 10 -7 10 -15z m25 6 c3 -5 1 -12 -5 -16 -5
-3 -10 1 -10 9 0 18 6 21 15 7z m32 -13 c-3 -8 -6 -5 -6 6 -1 11 2 17 5 13 3
-3 4 -12 1 -19z m40 0 c-3 -8 -6 -5 -6 6 -1 11 2 17 5 13 3 -3 4 -12 1 -19z
m83 7 c0 -8 -2 -15 -4 -15 -2 0 -6 7 -10 15 -3 8 -1 15 4 15 6 0 10 -7 10 -15z
m27 -7 c-3 -8 -6 -5 -6 6 -1 11 2 17 5 13 3 -3 4 -12 1 -19z m28 12 c3 -5 1
-10 -4 -10 -6 0 -11 5 -11 10 0 6 2 10 4 10 3 0 8 -4 11 -10z m4827 -23 c4 -7
8 -20 8 -29 0 -15 -9 -18 -55 -18 -38 0 -55 -4 -55 -13 0 -35 57 -50 80 -22
16 19 31 20 24 1 -9 -23 -51 -37 -79 -26 -54 20 -57 101 -6 126 26 13 69 3 83
-19z m73 -32 c10 -31 22 -52 25 -48 4 4 15 29 25 56 17 46 43 68 29 25 -18
-59 -45 -108 -57 -108 -8 0 -23 25 -36 59 -23 64 -25 71 -13 71 4 0 16 -25 27
-55z m-395 -65 c0 -5 -4 -10 -10 -10 -5 0 -10 5 -10 10 0 6 5 10 10 10 6 0 10
-4 10 -10z"/>
<path d="M4115 9770 c-3 -5 1 -10 10 -10 9 0 13 5 10 10 -3 6 -8 10 -10 10 -2
0 -7 -4 -10 -10z"/>
<path d="M2630 9643 c-19 -2 -294 -16 -610 -33 -645 -33 -666 -36 -820 -116
-206 -106 -352 -291 -410 -518 -26 -101 -26 -187 0 -656 11 -201 26 -493 35
-650 11 -213 19 -305 34 -362 69 -270 274 -482 546 -568 101 -31 218 -35 560
-16 165 8 401 20 525 26 572 27 613 32 778 112 83 39 119 64 184 126 137 130
225 291 249 457 12 81 3 379 -26 870 -7 132 -19 337 -26 455 -13 241 -28 320
-84 431 -89 178 -215 300 -393 381 -118 53 -198 68 -361 66 -80 -1 -162 -3
-181 -5z m538 -1408 c7 -126 10 -235 7 -243 -3 -7 -15 -12 -27 -10 -30 4 -34
29 -43 244 -5 116 -11 177 -19 180 -6 2 -47 0 -91 -4 l-80 -7 -1 -42 c-1 -22
-4 -48 -7 -57 -9 -22 -44 -20 -57 3 -14 27 -13 138 2 147 12 7 216 22 273 20
l30 -1 13 -230z m-511 -30 c7 -137 8 -234 3 -239 -10 -10 -269 -27 -282 -19
-5 2 -8 15 -8 27 0 28 29 36 125 36 94 0 95 1 95 81 0 65 -1 69 -25 75 -14 3
-54 3 -90 -1 -76 -8 -105 -1 -105 25 0 23 16 27 116 33 39 2 76 7 83 11 6 4
11 34 11 71 0 77 0 77 -135 73 l-90 -3 0 25 c0 24 3 25 85 31 47 3 112 5 145
5 l60 -1 12 -230z m-526 203 c0 -2 6 -104 13 -228 10 -168 10 -228 2 -237 -14
-16 -280 -31 -288 -17 -3 5 -2 19 2 30 8 19 18 22 104 26 53 2 100 8 104 13 5
6 6 39 3 75 l-6 65 -98 2 c-54 1 -100 3 -102 5 -2 1 -5 12 -7 23 -3 18 5 21
97 30 l100 10 0 70 0 70 -103 0 c-90 1 -105 3 -114 19 -14 26 -1 34 62 39 71
4 230 8 231 5z m-619 -118 c4 -47 11 -139 15 -205 l8 -120 37 -3 c27 -2 39 -9
44 -24 8 -28 -10 -38 -71 -38 -27 0 -66 -3 -85 -6 -45 -7 -81 16 -61 39 7 9
25 17 39 19 l27 3 -3 120 c-1 66 -5 148 -8 183 l-6 63 -41 -3 c-40 -3 -42 -5
-47 -38 -11 -75 -64 -36 -58 43 3 41 4 42 43 48 22 4 67 6 100 5 l60 -1 7 -85z"/>
<path d="M3745 9192 c3 -9 16 -51 27 -92 11 -41 21 -76 22 -77 2 -2 317 85
322 90 2 2 -49 16 -113 31 -65 16 -151 36 -191 46 -68 17 -73 17 -67 2z m182
-79 c-3 -10 -5 -4 -5 12 0 17 2 24 5 18 2 -7 2 -21 0 -30z"/>
<path d="M3815 8703 c4 -60 8 -109 9 -111 2 -1 82 24 180 55 97 31 171 60 164
64 -13 7 -343 99 -354 99 -4 0 -3 -48 1 -107z"/>
<path d="M4312 7602 c-32 -2 -46 -9 -59 -28 -15 -24 -15 -27 4 -52 10 -15 38
-37 61 -49 24 -11 37 -23 30 -26 -23 -8 -4 -16 66 -27 90 -14 192 0 182 25 -3
9 1 15 9 15 24 0 85 60 85 85 0 33 -22 46 -87 50 -32 3 -50 2 -40 -1 9 -3 17
-10 17 -15 0 -13 -12 -11 -36 5 -20 15 -146 24 -232 18z m236 -29 c49 -32 53
-47 19 -86 -17 -20 -32 -27 -60 -27 -56 0 -86 24 -82 65 1 18 9 40 16 49 19
21 73 20 107 -1z m-145 -130 c-7 -2 -19 -2 -25 0 -7 3 -2 5 12 5 14 0 19 -2
13 -5z m157 -3 c-14 -4 -52 -8 -85 -7 l-60 0 65 7 c95 10 110 10 80 0z"/>
<path d="M4795 7550 c-3 -5 -2 -10 4 -10 6 0 8 -7 5 -15 -3 -8 -2 -20 2 -26 5
-9 9 -7 14 7 13 35 -8 71 -25 44z"/>
<path d="M4295 7460 c3 -5 14 -10 23 -10 15 0 15 2 2 10 -20 13 -33 13 -25 0z"/>
<path d="M4626 7455 c-16 -12 -17 -15 -4 -15 8 0 21 7 28 15 16 19 1 19 -24 0z"/>
<path d="M5368 9573 c7 -3 16 -2 19 1 4 3 -2 6 -13 5 -11 0 -14 -3 -6 -6z"/>
<path d="M5437 9564 c-8 -8 3 -34 14 -34 11 0 12 27 0 34 -4 3 -11 3 -14 0z"/>
<path d="M1117 5873 c-4 -3 -7 -43 -7 -88 0 -63 4 -86 16 -96 31 -25 49 1 52
77 4 91 -2 114 -32 114 -12 0 -26 -3 -29 -7z"/>
<path d="M3437 5873 c-4 -3 -7 -43 -7 -88 0 -63 4 -86 16 -96 31 -25 49 1 52
77 4 91 -2 114 -32 114 -12 0 -26 -3 -29 -7z"/>
<path d="M5329 5799 c-8 -16 -8 -28 0 -46 21 -45 70 -11 57 40 -8 33 -40 36
-57 6z"/>
<path d="M1860 5830 c0 -25 4 -30 23 -30 13 0 28 5 35 12 17 17 -4 48 -33 48
-21 0 -25 -5 -25 -30z"/>
<path d="M4410 5830 c0 -29 2 -31 33 -28 27 2 32 7 32 28 0 21 -5 26 -32 28
-31 3 -33 1 -33 -28z"/>
<path d="M1997 5813 c-14 -13 -6 -23 18 -23 16 0 25 6 25 15 0 15 -31 21 -43
8z"/>
<path d="M2112 5778 c2 -35 7 -43 23 -43 26 0 44 47 25 69 -7 9 -21 16 -32 16
-16 0 -19 -6 -16 -42z"/>
<path d="M2423 5764 c-3 -8 -1 -20 4 -25 14 -14 43 0 43 22 0 24 -38 26 -47 3z"/>
<path d="M2664 5793 c-8 -31 6 -58 31 -58 25 0 39 27 31 58 -5 20 -13 27 -31
27 -18 0 -26 -7 -31 -27z"/>
<path d="M4547 5814 c-12 -12 -8 -61 7 -73 25 -21 47 -2 44 38 -2 27 -8 37
-23 39 -12 2 -24 0 -28 -4z"/>
<path d="M5097 5813 c-15 -14 -6 -23 23 -23 22 0 28 4 24 15 -6 15 -35 20 -47
8z"/>
<path d="M5213 5764 c-9 -23 13 -40 32 -24 8 7 15 19 15 26 0 19 -39 18 -47
-2z"/>
<path d="M3692 4548 c-6 -6 -12 -36 -12 -65 0 -42 4 -54 20 -63 12 -6 30 -8
41 -5 18 6 20 14 17 73 -3 63 -4 67 -28 70 -14 2 -31 -3 -38 -10z"/>
<path d="M956 4590 c-3 -8 -12 -34 -20 -57 l-15 -43 40 0 c44 0 44 -4 14 80
-9 24 -15 30 -19 20z"/>
<path d="M1450 4541 c-15 -30 -14 -31 35 -31 30 0 45 4 45 13 0 37 -62 51 -80
18z"/>
<path d="M2220 4455 c-17 -21 -5 -45 23 -45 28 0 47 17 47 42 0 23 -52 25 -70
3z"/>
<path d="M3427 4463 c-11 -10 -8 -41 4 -48 5 -4 21 -4 35 -1 17 5 24 13 24 31
0 21 -5 25 -28 25 -16 0 -32 -3 -35 -7z"/>
<path d="M2472 4051 c-8 -5 -12 -23 -10 -47 3 -34 6 -39 28 -39 22 0 25 5 28
39 3 34 -8 56 -28 56 -3 0 -11 -4 -18 -9z"/>
<path d="M913 4042 c-19 -12 -28 -68 -12 -77 17 -11 39 22 39 57 0 29 -6 33
-27 20z"/>
<path d="M4054 4055 c-8 -19 3 -35 26 -35 19 0 34 25 24 41 -8 14 -44 10 -50
-6z"/>
<path d="M4062 3991 c-21 -13 -10 -46 16 -49 27 -4 40 22 22 43 -14 17 -20 18
-38 6z"/>
<path d="M4434 4056 c-3 -7 -4 -35 -2 -62 2 -38 7 -50 22 -52 10 -2 22 2 27
10 10 15 12 79 3 102 -8 20 -43 21 -50 2z"/>
<path d="M1080 3979 c0 -15 5 -20 22 -17 34 5 37 38 4 38 -20 0 -26 -5 -26
-21z"/>
<path d="M1347 4053 c-17 -16 -5 -33 23 -33 32 0 37 9 18 28 -13 13 -31 16
-41 5z"/>
<path d="M1754 3989 c-3 -6 -1 -16 5 -22 13 -13 42 0 49 21 5 15 -44 16 -54 1z"/>
<path d="M2322 3983 c2 -10 12 -18 23 -18 11 0 21 8 23 18 3 13 -3 17 -23 17
-20 0 -26 -4 -23 -17z"/>
<path d="M3646 3965 c-6 -18 16 -30 39 -21 8 3 15 12 15 21 0 20 -46 20 -54 0z"/>
<path d="M1897 3644 c-4 -4 -7 -25 -7 -46 0 -35 2 -39 23 -36 19 3 22 9 22 43
0 28 -5 41 -15 43 -9 1 -19 0 -23 -4z"/>
<path d="M3524 3636 c-3 -8 -4 -27 -2 -43 4 -38 44 -46 53 -10 12 45 -35 93
-51 53z"/>
<path d="M4974 3626 c-10 -41 -1 -61 26 -61 22 0 25 4 25 40 0 34 -4 40 -22
43 -17 3 -24 -3 -29 -22z"/>
<path d="M2231 3644 c-14 -31 -10 -37 17 -32 16 3 17 6 7 31 l-11 28 -13 -27z"/>
<path d="M1174 3589 c-9 -15 12 -33 30 -26 9 4 16 13 16 22 0 17 -35 21 -46 4z"/>
<path d="M1614 3636 c-3 -8 -4 -27 -2 -43 2 -22 8 -28 28 -28 20 0 26 6 28 28
5 45 -40 80 -54 43z"/>
<path d="M2027 3644 c-14 -14 -6 -24 19 -24 16 0 24 5 22 13 -5 14 -31 21 -41
11z"/>
<path d="M2427 3593 c-16 -15 -6 -34 15 -31 29 4 38 38 10 38 -10 0 -22 -3
-25 -7z"/>
<path d="M3282 3638 c-26 -26 -8 -83 24 -76 15 2 19 12 19 43 0 42 -19 57 -43
33z"/>
<path d="M4046 3585 c-6 -18 16 -30 39 -21 8 3 15 12 15 21 0 20 -46 20 -54 0z"/>
<path d="M4574 3636 c-3 -8 -4 -27 -2 -43 2 -22 8 -28 27 -28 28 0 42 30 30
63 -9 25 -46 30 -55 8z"/>
<path d="M5117 3644 c-14 -14 -6 -24 19 -24 16 0 24 5 22 13 -5 14 -31 21 -41
11z"/>
<path d="M5517 3644 c-14 -14 -6 -24 19 -24 16 0 24 5 22 13 -5 14 -31 21 -41
11z"/>
<path d="M5772 3638 c-26 -26 -10 -78 24 -78 17 0 25 7 30 27 11 44 -26 79
-54 51z"/>
<path d="M6042 3638 c-26 -26 -10 -78 25 -78 22 0 24 3 21 42 -3 45 -22 60
-46 36z"/>
<path d="M1121 3316 c-7 -8 -11 -27 -9 -43 2 -22 8 -28 28 -28 22 0 25 4 25
40 0 43 -21 58 -44 31z"/>
<path d="M2614 3317 c-3 -9 -4 -28 -2 -44 2 -20 9 -29 26 -31 22 -3 23 0 20
40 -2 31 -8 44 -21 46 -9 2 -20 -3 -23 -11z"/>
<path d="M2881 3316 c-7 -8 -11 -27 -9 -43 2 -22 8 -28 28 -28 22 0 25 4 25
40 0 43 -21 58 -44 31z"/>
<path d="M922 3318 c-24 -24 -11 -78 19 -78 27 0 44 37 30 66 -12 26 -30 31
-49 12z"/>
<path d="M1257 3324 c-14 -14 -6 -24 19 -24 16 0 24 5 22 13 -5 14 -31 21 -41
11z"/>
<path d="M1650 3315 c-11 -13 -8 -15 18 -15 24 0 30 4 26 15 -4 8 -12 15 -19
15 -7 0 -18 -7 -25 -15z"/>
<path d="M1970 3315 c-11 -13 -8 -15 18 -15 24 0 30 4 26 15 -4 8 -12 15 -19
15 -7 0 -18 -7 -25 -15z"/>
<path d="M2482 3318 c-26 -26 -8 -83 23 -76 29 5 41 33 27 62 -13 28 -31 33
-50 14z"/>
<path d="M2757 3324 c-14 -14 -6 -24 19 -24 16 0 24 5 22 13 -5 14 -31 21 -41
11z"/>
<path d="M3097 3324 c-14 -14 -6 -24 19 -24 16 0 24 5 22 13 -5 14 -31 21 -41
11z"/>
<path d="M3214 3269 c-9 -15 12 -33 30 -26 9 4 16 13 16 22 0 17 -35 21 -46 4z"/>
<path d="M3470 3315 c-11 -13 -8 -15 20 -15 21 0 30 4 28 13 -7 18 -33 20 -48
2z"/>
<path d="M901 2602 c-67 -34 -76 -58 -76 -202 0 -114 2 -132 21 -157 42 -58
67 -63 304 -63 237 0 262 5 304 63 19 25 21 43 21 157 0 114 -2 132 -21 157
-42 58 -67 63 -304 63 -185 0 -220 -2 -249 -18z m399 -122 c0 -21 -24 -28 -35
-10 -8 14 3 30 21 30 8 0 14 -9 14 -20z m-246 -15 c-4 -15 -2 -25 4 -25 6 0
12 10 14 22 5 32 28 35 28 4 0 -14 5 -26 10 -26 6 0 10 -4 10 -10 0 -5 -7 -10
-15 -10 -8 0 -15 -7 -15 -15 0 -8 5 -15 10 -15 6 0 10 -4 10 -10 0 -5 -6 -10
-14 -10 -8 0 -16 -10 -18 -22 -5 -33 -28 -35 -29 -1 l-1 28 -11 -27 c-14 -35
-36 -37 -29 -3 2 15 0 25 -7 25 -6 0 -11 5 -11 10 0 6 7 10 15 10 8 0 15 7 15
15 0 8 -7 15 -15 15 -22 0 -18 17 5 23 12 3 20 14 20 26 0 12 6 21 15 21 11 0
14 -7 9 -25z m174 -27 c7 -7 12 -36 12 -66 l0 -53 -52 3 c-51 3 -53 4 -53 33
0 25 5 32 33 40 43 12 41 28 -3 19 -39 -7 -43 -3 -19 20 18 19 65 21 82 4z
m72 -53 c0 -51 -3 -65 -15 -65 -12 0 -15 14 -15 65 0 51 3 65 15 65 12 0 15
-14 15 -65z"/>
<path d="M1046 2411 c-4 -7 -5 -15 -2 -18 9 -9 19 4 14 18 -4 11 -6 11 -12 0z"/>
<path d="M1177 2373 c-12 -11 -8 -23 8 -23 8 0 15 7 15 15 0 16 -12 20 -23 8z"/>
<path d="M1761 2602 c-67 -34 -76 -58 -76 -202 0 -114 2 -132 21 -157 44 -60
60 -63 374 -63 314 0 330 3 374 63 19 25 21 43 21 157 0 114 -2 132 -21 157
-44 60 -60 63 -374 63 -252 0 -289 -2 -319 -18z m269 -192 c0 -83 -1 -90 -20
-90 -19 0 -20 7 -20 90 0 83 1 90 20 90 19 0 20 -7 20 -90z m60 0 c0 -73 -3
-90 -15 -90 -12 0 -15 17 -15 90 0 73 3 90 15 90 12 0 15 -17 15 -90z m-180
54 c0 -14 4 -23 10 -19 6 3 10 15 10 26 0 10 7 19 15 19 11 0 14 -7 9 -24 -4
-18 -1 -25 13 -29 16 -4 15 -6 -4 -12 -26 -8 -31 -35 -8 -35 22 0 18 -17 -5
-23 -12 -3 -20 -14 -20 -26 0 -12 -6 -21 -14 -21 -9 0 -12 8 -8 25 2 14 0 25
-6 25 -6 0 -12 -10 -14 -22 -5 -32 -28 -35 -28 -4 0 14 -4 26 -10 26 -5 0 -10
5 -10 10 0 6 6 10 14 10 8 0 16 7 20 15 3 9 0 15 -9 15 -8 0 -15 5 -15 10 0 6
6 10 14 10 8 0 17 11 20 25 8 33 26 32 26 -1z m378 -27 c7 -5 12 -32 12 -63 0
-47 -2 -54 -20 -54 -17 0 -20 7 -20 50 0 38 -4 50 -15 50 -11 0 -15 -12 -15
-50 0 -43 -3 -50 -20 -50 -17 0 -20 7 -20 51 0 43 -3 50 -17 47 -14 -2 -19
-15 -21 -51 -2 -33 -7 -47 -18 -47 -11 0 -14 15 -14 64 l0 64 78 -1 c42 0 83
-4 90 -10z"/>
<path d="M1900 2405 c0 -8 5 -15 10 -15 6 0 10 7 10 15 0 8 -4 15 -10 15 -5 0
-10 -7 -10 -15z"/>
<path d="M2761 2602 c-67 -34 -76 -58 -76 -202 0 -144 9 -168 76 -202 32 -17
105 -18 1099 -18 994 0 1067 1 1099 18 65 33 76 59 79 195 3 114 2 124 -20
157 -50 75 32 70 -1158 70 -994 0 -1067 -1 -1099 -18z m729 -131 c0 -24 3 -28
20 -24 34 9 50 -14 50 -73 0 -40 -4 -54 -14 -54 -11 0 -16 14 -18 47 -2 36 -7
49 -20 51 -15 3 -18 -4 -18 -47 0 -44 -3 -51 -20 -51 -19 0 -20 7 -20 90 0 83
1 90 20 90 15 0 20 -7 20 -29z m130 9 c0 -11 -7 -20 -15 -20 -8 0 -15 9 -15
20 0 11 7 20 15 20 8 0 15 -9 15 -20z m420 -70 c0 -73 -3 -90 -15 -90 -12 0
-15 17 -15 90 0 73 3 90 15 90 12 0 15 -17 15 -90z m546 79 c10 -17 -13 -36
-27 -22 -12 12 -4 33 11 33 5 0 12 -5 16 -11z m-1676 -25 c0 -14 4 -23 10 -19
6 3 10 15 10 26 0 10 6 19 14 19 9 0 12 -8 8 -25 -2 -15 0 -25 7 -25 6 0 11
-4 11 -10 0 -5 -7 -10 -15 -10 -21 0 -19 -26 3 -35 15 -6 14 -8 -5 -16 -14 -5
-23 -17 -23 -29 0 -11 -6 -20 -14 -20 -9 0 -12 8 -8 25 2 14 0 25 -6 25 -6 0
-12 -10 -14 -22 -2 -12 -9 -23 -17 -26 -10 -3 -12 2 -7 22 5 19 3 26 -9 26 -8
0 -15 5 -15 10 0 6 6 10 14 10 8 0 16 7 20 15 3 9 0 15 -9 15 -8 0 -15 5 -15
10 0 6 6 10 14 10 8 0 17 11 20 25 8 33 26 32 26 -1z m175 -25 c3 -5 15 -3 25
4 35 21 55 -2 58 -67 2 -44 0 -56 -12 -56 -11 0 -16 13 -18 48 -2 34 -7 47
-18 47 -11 0 -16 -13 -18 -47 -3 -40 -6 -48 -23 -48 -16 0 -19 7 -19 50 0 38
-4 50 -15 50 -11 0 -15 -12 -15 -50 0 -43 -3 -50 -20 -50 -18 0 -20 7 -20 63
l0 64 45 1 c25 0 47 -4 50 -9z m203 -1 c5 -7 12 -36 13 -65 l4 -51 -45 0 c-47
0 -70 11 -70 34 0 21 30 44 56 44 15 0 23 4 19 11 -4 6 -19 7 -36 4 -30 -7
-37 3 -17 23 16 16 63 15 76 0z m123 2 c10 -6 19 -17 19 -25 0 -17 -26 -20
-35 -5 -15 24 -35 9 -35 -25 0 -28 4 -35 20 -35 11 0 20 5 20 10 0 6 7 10 15
10 8 0 15 -6 15 -13 0 -36 -59 -50 -92 -20 -36 33 -12 113 34 113 11 0 28 -5
39 -10z m209 -55 c0 -51 -3 -65 -15 -65 -12 0 -15 14 -15 65 0 51 3 65 15 65
12 0 15 -14 15 -65z m128 53 c7 -6 12 -33 12 -64 0 -47 -2 -54 -20 -54 -17 0
-20 7 -20 51 0 43 -3 50 -17 47 -14 -2 -19 -15 -21 -51 -2 -33 -7 -47 -18 -47
-11 0 -14 15 -14 64 l0 63 43 0 c23 1 48 -4 55 -9z m136 -10 c28 -40 21 -58
-24 -58 -22 0 -40 -5 -40 -11 0 -6 14 -9 33 -7 23 2 32 -1 32 -12 0 -23 -62
-26 -86 -4 -40 36 -9 114 45 114 14 0 32 -10 40 -22z m278 5 c10 -9 18 -27 18
-40 0 -20 -5 -23 -41 -23 -26 0 -38 -4 -34 -11 4 -6 19 -10 33 -9 41 3 45 1
32 -15 -14 -17 -53 -20 -81 -5 -13 8 -19 21 -19 47 0 63 50 94 92 56z m126 5
c5 -7 12 -36 14 -65 l5 -51 -49 0 c-37 -1 -50 3 -58 18 -8 15 -6 24 10 40 11
11 29 20 40 20 11 0 20 5 20 11 0 7 -12 9 -35 5 -36 -7 -44 1 -23 22 16 16 63
15 76 0z m112 -10 c0 -10 -7 -18 -15 -18 -11 0 -15 -12 -15 -45 0 -38 -3 -45
-20 -45 -18 0 -20 7 -20 64 l0 64 35 -1 c27 -1 35 -5 35 -19z m120 2 c6 -10
10 -39 10 -64 0 -39 -3 -46 -20 -46 -17 0 -20 7 -20 51 0 43 -3 50 -17 47 -14
-2 -19 -15 -21 -51 -2 -33 -7 -47 -18 -47 -11 0 -14 15 -14 63 l0 64 45 1 c34
0 48 -4 55 -18z m70 -45 c0 -58 -2 -65 -20 -65 -18 0 -20 7 -20 65 0 58 2 65
20 65 18 0 20 -7 20 -65z m119 56 c6 -4 15 -33 18 -64 5 -53 4 -57 -16 -57
-19 0 -21 6 -21 50 0 43 -3 50 -20 50 -17 0 -20 -7 -20 -50 0 -43 -3 -50 -20
-50 -18 0 -20 7 -20 58 0 32 2 61 5 64 9 9 79 8 94 -1z m151 -66 c0 -55 -4
-78 -16 -90 -22 -21 -78 -16 -82 7 -3 15 2 17 26 12 17 -4 32 -1 36 5 5 7 -3
11 -22 11 -38 0 -54 20 -54 67 0 45 20 62 73 61 l39 0 0 -73z m-880 20 c0 -10
-11 -15 -35 -15 -24 0 -35 5 -35 15 0 10 11 15 35 15 24 0 35 -5 35 -15z"/>
<path d="M2900 2405 c0 -8 5 -15 10 -15 6 0 10 7 10 15 0 8 -4 15 -10 15 -5 0
-10 -7 -10 -15z"/>
<path d="M3235 2369 c-10 -15 1 -23 20 -15 9 3 13 10 10 16 -8 13 -22 13 -30
-1z"/>
<path d="M3825 2410 c-3 -5 3 -10 14 -10 12 0 21 5 21 10 0 6 -6 10 -14 10 -8
0 -18 -4 -21 -10z"/>
<path d="M4105 2410 c-4 -6 5 -10 20 -10 15 0 24 4 20 10 -3 6 -12 10 -20 10
-8 0 -17 -4 -20 -10z"/>
<path d="M4235 2370 c-3 -5 -4 -14 0 -20 8 -13 35 -1 35 16 0 16 -26 19 -35 4z"/>
<path d="M4784 2406 c-10 -27 1 -51 24 -54 21 -3 23 0 20 30 -3 35 -33 52 -44
24z"/>
<path d="M901 1962 c-67 -34 -76 -58 -76 -202 0 -144 9 -168 76 -202 31 -17
90 -18 789 -18 699 0 758 1 789 18 67 34 76 58 76 202 0 144 -9 168 -76 202
-31 17 -90 18 -789 18 -699 0 -758 -1 -789 -18z m699 -191 l0 -88 -44 -1 c-52
-1 -70 15 -70 63 0 41 19 65 50 65 19 0 24 5 24 25 0 18 5 25 20 25 18 0 20
-7 20 -89z m400 69 c0 -11 -6 -20 -13 -20 -19 0 -27 10 -20 26 8 21 33 17 33
-6z m186 9 c10 -17 -13 -36 -27 -22 -12 12 -4 33 11 33 5 0 12 -5 16 -11z
m-1132 -24 c-3 -14 -2 -25 4 -25 5 0 13 11 16 25 4 14 11 25 16 25 6 0 10 -11
10 -25 0 -14 5 -25 10 -25 6 0 10 -4 10 -10 0 -5 -7 -10 -15 -10 -8 0 -15 -7
-15 -15 0 -8 5 -15 10 -15 6 0 10 -4 10 -10 0 -5 -6 -10 -14 -10 -8 0 -16 -10
-18 -22 -5 -33 -28 -35 -29 -1 l-1 28 -11 -27 c-14 -35 -36 -37 -29 -3 2 15 0
25 -7 25 -6 0 -11 5 -11 10 0 6 7 10 15 10 8 0 15 7 15 15 0 8 -7 15 -15 15
-22 0 -18 17 5 23 12 3 20 14 20 26 0 12 6 21 15 21 11 0 14 -7 9 -25z m876 0
c0 -8 5 -15 10 -15 6 0 10 -7 10 -15 0 -8 -4 -15 -10 -15 -5 0 -10 -16 -10
-35 0 -19 5 -35 10 -35 6 0 10 -7 10 -16 0 -11 -8 -14 -27 -12 -26 3 -28 7
-31 51 -2 26 -7 47 -13 47 -5 0 -9 7 -9 15 0 8 5 15 10 15 6 0 10 7 10 15 0 8
9 15 20 15 11 0 20 -7 20 -15z m330 0 c0 -10 10 -15 29 -15 25 0 31 -6 42 -37
l12 -38 12 35 c10 31 45 56 45 32 0 -12 -34 -109 -50 -144 -14 -30 -50 -39
-50 -13 0 8 5 15 10 15 14 0 12 26 -7 86 -13 44 -18 50 -30 39 -15 -16 -18
-75 -3 -75 6 0 10 -7 10 -16 0 -11 -8 -14 -27 -12 -26 3 -28 7 -31 51 -2 26
-7 47 -13 47 -5 0 -9 7 -9 15 0 8 5 15 10 15 6 0 10 7 10 15 0 8 9 15 20 15
11 0 20 -7 20 -15z m-1025 -31 c17 -18 20 -66 5 -95 -7 -12 -21 -19 -40 -19
-25 0 -30 -4 -30 -25 0 -18 -5 -25 -20 -25 -18 0 -20 7 -20 83 0 46 2 86 5 89
13 12 86 6 100 -8z m105 -5 c0 -10 -7 -19 -15 -19 -11 0 -15 -12 -15 -45 0
-38 -3 -45 -20 -45 -18 0 -20 7 -20 64 l0 64 35 0 c28 0 35 -4 35 -19z m112 4
c22 -20 24 -76 2 -97 -37 -38 -104 -7 -104 47 0 58 60 88 102 50z m208 -33 c0
-43 3 -50 20 -50 17 0 20 7 20 51 0 43 3 50 18 47 14 -3 18 -15 20 -65 l3 -61
-51 0 c-59 -1 -70 12 -70 82 0 39 3 46 20 46 17 0 20 -7 20 -50z m192 33 c10
-9 18 -20 18 -25 0 -13 -38 -10 -42 4 -7 21 -38 0 -38 -27 0 -29 24 -43 45
-25 21 17 38 4 25 -21 -13 -24 -72 -26 -91 -3 -20 24 -16 84 6 100 25 19 54
18 77 -3z m148 -48 c0 -51 -3 -65 -15 -65 -12 0 -15 14 -15 65 0 51 3 65 15
65 12 0 15 -14 15 -65z m64 30 c8 -41 21 -39 29 5 5 21 12 30 26 30 19 0 19
-1 -2 -65 -27 -85 -47 -86 -76 -6 -26 71 -26 71 -2 71 14 0 21 -10 25 -35z
m126 -30 c0 -58 -2 -65 -20 -65 -18 0 -20 7 -20 65 0 58 2 65 20 65 18 0 20
-7 20 -65z"/>
<path d="M1524 1766 c-9 -24 0 -51 19 -54 14 -3 17 4 17 32 0 26 -4 36 -15 36
-9 0 -18 -6 -21 -14z"/>
<path d="M1046 1771 c-4 -7 -5 -15 -2 -18 9 -9 19 4 14 18 -4 11 -6 11 -12 0z"/>
<path d="M1177 1774 c-4 -4 -7 -20 -7 -36 0 -22 5 -28 21 -28 17 0 20 5 17 32
-3 31 -17 45 -31 32z"/>
<path d="M1397 1773 c-4 -3 -7 -19 -7 -35 0 -21 5 -28 20 -28 16 0 20 7 20 35
0 33 -16 46 -33 28z"/>
<path d="M2841 1962 c-67 -34 -76 -58 -76 -202 0 -144 9 -168 76 -202 32 -17
93 -18 849 -18 756 0 817 1 849 18 65 33 76 59 79 195 3 114 2 124 -20 157
-49 74 2 70 -908 70 -756 0 -817 -1 -849 -18z m349 -191 l0 -88 -44 -1 c-52
-1 -70 15 -70 63 0 42 21 68 51 62 20 -4 23 0 23 24 0 22 5 29 20 29 18 0 20
-7 20 -89z m738 66 c2 -10 -3 -17 -12 -17 -10 0 -16 9 -16 21 0 24 23 21 28
-4z m-928 -13 c0 -14 4 -23 10 -19 6 3 10 15 10 26 0 10 6 19 14 19 9 0 12 -8
8 -25 -2 -15 0 -25 7 -25 6 0 11 -4 11 -10 0 -5 -7 -10 -15 -10 -21 0 -19 -26
3 -35 15 -6 14 -8 -5 -16 -14 -5 -23 -17 -23 -29 0 -11 -6 -20 -14 -20 -9 0
-12 8 -8 25 2 14 0 25 -6 25 -6 0 -12 -10 -14 -22 -2 -12 -9 -23 -17 -26 -10
-3 -12 2 -7 22 5 19 3 26 -9 26 -8 0 -15 5 -15 10 0 6 6 10 14 10 8 0 16 7 20
15 3 9 0 15 -9 15 -8 0 -15 5 -15 10 0 6 7 10 15 10 8 0 17 11 21 25 8 33 24
32 24 -1z m380 2 c0 -8 7 -16 15 -20 8 -3 15 -10 15 -16 0 -5 -7 -10 -15 -10
-10 0 -15 -10 -15 -30 0 -18 6 -33 15 -36 27 -11 17 -36 -12 -32 -26 3 -28 7
-31 51 -2 26 -7 47 -13 47 -5 0 -9 7 -9 15 0 8 5 15 10 15 6 0 10 7 10 15 0 8
7 15 15 15 8 0 15 -6 15 -14z m-76 -32 c10 -10 16 -33 16 -64 l0 -49 -46 2
c-31 1 -50 8 -57 18 -15 25 -1 49 33 55 16 4 30 11 30 16 0 5 -16 6 -35 2 -19
-3 -35 -4 -35 -1 0 14 34 37 55 37 13 0 31 -7 39 -16z m210 0 c10 -10 16 -33
16 -64 l0 -49 -46 2 c-31 1 -50 8 -57 18 -15 25 -1 49 33 55 16 4 30 11 30 16
0 5 -16 6 -35 2 -19 -3 -35 -4 -35 -1 0 14 34 37 55 37 13 0 31 -7 39 -16z
m217 6 c32 -18 23 -33 -16 -26 -19 4 -35 3 -35 -2 0 -4 16 -14 35 -21 56 -20
42 -71 -20 -71 -30 0 -55 15 -55 32 0 12 35 9 48 -4 9 -9 15 -9 23 -1 9 9 2
16 -25 27 -23 10 -36 22 -36 33 0 38 40 54 81 33z m134 -12 c14 -21 14 -23 -1
-26 -9 -2 -20 2 -24 8 -14 23 -42 3 -38 -27 3 -26 6 -28 40 -25 31 2 37 0 32
-13 -7 -17 -42 -29 -71 -23 -28 5 -45 50 -32 84 5 16 16 32 22 36 23 15 56 8
72 -14z m65 -43 c0 -51 -3 -65 -15 -65 -12 0 -15 14 -15 65 0 51 3 65 15 65
12 0 15 -14 15 -65z m122 48 c10 -9 18 -27 18 -40 0 -20 -5 -23 -41 -23 -26 0
-38 -4 -34 -11 4 -6 19 -10 33 -9 41 3 45 1 32 -15 -16 -20 -64 -19 -84 1 -9
8 -16 29 -16 46 0 58 52 87 92 51z m136 5 c7 -6 12 -33 12 -64 0 -47 -2 -54
-20 -54 -17 0 -20 7 -20 51 0 43 -3 50 -17 47 -14 -2 -19 -15 -21 -51 -2 -33
-7 -47 -18 -47 -11 0 -14 15 -14 64 l0 63 43 0 c23 1 48 -4 55 -9z m126 -4
c31 -30 14 -45 -24 -21 -17 10 -22 9 -30 -3 -6 -8 -9 -24 -8 -35 3 -17 9 -20
41 -17 20 2 37 -1 37 -6 0 -34 -82 -45 -100 -13 -36 69 33 147 84 95z m130 -6
c29 -40 21 -58 -25 -58 -26 0 -38 -4 -34 -11 4 -5 19 -9 33 -7 19 2 27 -2 27
-12 0 -10 -12 -16 -37 -18 -30 -3 -40 1 -53 22 -44 66 44 148 89 84z m-824
-33 c0 -10 -11 -15 -35 -15 -24 0 -35 5 -35 15 0 10 11 15 35 15 24 0 35 -5
35 -15z"/>
<path d="M3114 1766 c-9 -24 0 -51 19 -54 14 -3 17 4 17 32 0 26 -4 36 -15 36
-9 0 -18 -6 -21 -14z"/>
<path d="M2990 1765 c0 -8 5 -15 10 -15 6 0 10 7 10 15 0 8 -4 15 -10 15 -5 0
-10 -7 -10 -15z"/>
<path d="M3257 1733 c-12 -11 -8 -23 8 -23 8 0 15 7 15 15 0 16 -12 20 -23 8z"/>
<path d="M3467 1733 c-12 -11 -8 -23 8 -23 8 0 15 7 15 15 0 16 -12 20 -23 8z"/>
<path d="M3995 1770 c-4 -6 5 -10 20 -10 15 0 24 4 20 10 -3 6 -12 10 -20 10
-8 0 -17 -4 -20 -10z"/>
<path d="M4385 1770 c-3 -5 3 -10 14 -10 12 0 21 5 21 10 0 6 -6 10 -14 10 -8
0 -18 -4 -21 -10z"/>
<path d="M2100 1095 c-23 -25 -23 -25 -4 -40 19 -15 19 -15 -1 -30 -19 -15
-19 -16 8 -42 26 -27 27 -27 42 -8 15 20 15 20 30 0 15 -19 16 -19 42 8 27 26
27 27 8 42 -20 15 -20 15 0 30 19 15 19 16 -8 42 -26 27 -27 27 -42 8 -14 -19
-16 -19 -29 -2 -17 22 -18 22 -46 -8z m80 -41 c11 -12 10 -18 -3 -32 -16 -15
-18 -15 -34 0 -13 14 -14 20 -3 32 7 9 16 16 20 16 4 0 13 -7 20 -16z"/>
<path d="M1531 1059 c-16 -45 -14 -49 15 -49 24 0 25 2 19 33 -10 47 -21 53
-34 16z"/>
<path d="M3135 1040 c-3 -5 1 -10 9 -10 9 0 16 5 16 10 0 6 -4 10 -9 10 -6 0
-13 -4 -16 -10z"/>
<path d="M3220 1040 c0 -5 5 -10 11 -10 5 0 7 5 4 10 -3 6 -8 10 -11 10 -2 0
-4 -4 -4 -10z"/>
<path d="M3250 1040 c0 -5 5 -10 11 -10 5 0 7 5 4 10 -3 6 -8 10 -11 10 -2 0
-4 -4 -4 -10z"/>
<path d="M3290 1038 c0 -4 4 -8 9 -8 6 0 12 4 15 8 3 5 -1 9 -9 9 -8 0 -15 -4
-15 -9z"/>
<path d="M3335 1040 c-3 -5 -1 -10 4 -10 6 0 11 5 11 10 0 6 -2 10 -4 10 -3 0
-8 -4 -11 -10z"/>
<path d="M3360 1040 c0 -5 5 -10 10 -10 6 0 10 5 10 10 0 6 -4 10 -10 10 -5 0
-10 -4 -10 -10z"/>
<path d="M3395 1040 c3 -5 10 -10 16 -10 5 0 9 5 9 10 0 6 -7 10 -16 10 -8 0
-12 -4 -9 -10z"/>
<path d="M5718 919 c-12 -6 -18 -22 -18 -45 0 -27 5 -37 26 -46 35 -16 58 0
62 43 5 48 -30 72 -70 48z"/>
<path d="M5888 919 c-35 -20 -21 -39 27 -39 46 0 58 13 33 38 -15 15 -37 15
-60 1z"/>
<path d="M5180 9335 c0 -55 76 -81 214 -73 68 4 82 8 98 28 33 41 15 51 -62
34 -22 -5 -23 -7 -7 -16 28 -15 2 -38 -45 -38 -35 0 -38 2 -28 19 9 18 6 20
-32 24 -35 3 -31 4 22 7 l65 3 -80 7 c-44 4 -95 10 -112 14 -27 6 -33 5 -33
-9z"/>
<path d="M6565 8318 c-38 -21 -69 -42 -67 -48 1 -5 -7 -10 -18 -10 -30 0 -142
-59 -134 -71 3 -6 0 -9 -8 -7 -15 3 -98 -31 -98 -41 0 -12 139 -43 161 -36 14
5 19 3 15 -3 -7 -12 208 -81 219 -70 3 3 4 77 3 165 l-3 160 -70 -39z"/>
</g>
</svg>
