<svg xmlns="http://www.w3.org/2000/svg" width="850" height="620" viewBox="0 0 850 620">
  <defs>
    <linearGradient id="bg" x1="0%" y1="0%" x2="100%" y2="100%">
      <stop offset="0%" style="stop-color:#0a0e17"/>
      <stop offset="100%" style="stop-color:#0d1321"/>
    </linearGradient>
    <linearGradient id="card1" x1="0%" y1="0%" x2="100%" y2="100%">
      <stop offset="0%" style="stop-color:#111827"/>
      <stop offset="100%" style="stop-color:#0f1525"/>
    </linearGradient>
    <linearGradient id="accent1" x1="0%" y1="0%" x2="100%" y2="0%">
      <stop offset="0%" style="stop-color:#7b61ff"/>
      <stop offset="100%" style="stop-color:#00ff9f"/>
    </linearGradient>
    <linearGradient id="accent2" x1="0%" y1="0%" x2="100%" y2="0%">
      <stop offset="0%" style="stop-color:#ff6ac1"/>
      <stop offset="100%" style="stop-color:#7b61ff"/>
    </linearGradient>
    <linearGradient id="accent3" x1="0%" y1="0%" x2="100%" y2="0%">
      <stop offset="0%" style="stop-color:#00ff9f"/>
      <stop offset="100%" style="stop-color:#00b4d8"/>
    </linearGradient>
    <linearGradient id="accent4" x1="0%" y1="0%" x2="100%" y2="0%">
      <stop offset="0%" style="stop-color:#ffbd2e"/>
      <stop offset="100%" style="stop-color:#ff6ac1"/>
    </linearGradient>
    <filter id="glow"><feGaussianBlur stdDeviation="1.5" result="b"/><feMerge><feMergeNode in="b"/><feMergeNode in="SourceGraphic"/></feMerge></filter>
    <filter id="softglow"><feGaussianBlur stdDeviation="3"/></filter>
  </defs>

  <!-- BG -->
  <rect fill="url(#bg)" width="850" height="620" rx="10"/>
  <rect x="0.5" y="0.5" width="849" height="619" rx="10" fill="none" stroke="#1a2340"/>

  <!-- ═══ CARD 1: Codet.ai ═══ -->
  <g transform="translate(20, 15)">
    <rect fill="url(#card1)" width="395" height="140" rx="8"/>
    <rect x="0.5" y="0.5" width="394" height="139" rx="8" fill="none" stroke="#1e2a45" stroke-width="0.5"/>
    <!-- Top accent -->
    <rect fill="url(#accent1)" width="395" height="2.5" rx="8"/>
    <rect fill="url(#card1)" y="3" width="395" height="8" rx="0"/>
    <!-- Glow orb -->
    <circle cx="30" cy="30" r="20" fill="#7b61ff" opacity="0.06" filter="url(#softglow)"/>
    <!-- Status dot -->
    <circle cx="18" cy="25" r="4" fill="#00ff9f"/>
    <!-- Title -->
    <text fill="#e2e8f0" font-family="monospace" font-weight="bold" font-size="15" x="30" y="29">Codet.ai</text>
    <text fill="#3d4f6f" font-family="monospace" font-size="11" x="120" y="29">// GTM Optimization Platform</text>
    <!-- Description -->
    <text fill="#6b7a99" font-family="monospace" font-size="10.5" x="18" y="52">Causal DAG experiments · Bayesian optimization</text>
    <text fill="#6b7a99" font-family="monospace" font-size="10.5" x="18" y="67">Thompson Sampling · Differential ICP profiling</text>
    <text fill="#6b7a99" font-family="monospace" font-size="10.5" x="18" y="82">Narrative arc hypothesis testing for founders</text>
    <!-- Tags -->
    <rect fill="#1a1f35" x="18" y="98" width="52" height="20" rx="4"/><text fill="#7b61ff" font-family="monospace" font-size="9.5" x="26" y="112">Python</text>
    <rect fill="#1a1f35" x="76" y="98" width="72" height="20" rx="4"/><text fill="#7b61ff" font-family="monospace" font-size="9.5" x="82" y="112">LangGraph</text>
    <rect fill="#1a1f35" x="154" y="98" width="80" height="20" rx="4"/><text fill="#7b61ff" font-family="monospace" font-size="9.5" x="160" y="112">YugabyteDB</text>
    <rect fill="#1a1f35" x="240" y="98" width="48" height="20" rx="4"/><text fill="#7b61ff" font-family="monospace" font-size="9.5" x="248" y="112">LLMs</text>
    <rect fill="#1a1f35" x="294" y="98" width="56" height="20" rx="4"/><text fill="#7b61ff" font-family="monospace" font-size="9.5" x="300" y="112">FastAPI</text>
  </g>

  <!-- ═══ CARD 2: DiffSpy ═══ -->
  <g transform="translate(435, 15)">
    <rect fill="url(#card1)" width="395" height="140" rx="8"/>
    <rect x="0.5" y="0.5" width="394" height="139" rx="8" fill="none" stroke="#1e2a45" stroke-width="0.5"/>
    <rect fill="url(#accent2)" width="395" height="2.5" rx="8"/>
    <rect fill="url(#card1)" y="3" width="395" height="8"/>
    <circle cx="30" cy="30" r="20" fill="#ff6ac1" opacity="0.06" filter="url(#softglow)"/>
    <circle cx="18" cy="25" r="4" fill="#00ff9f"/>
    <text fill="#e2e8f0" font-family="monospace" font-weight="bold" font-size="15" x="30" y="29">DiffSpy</text>
    <text fill="#3d4f6f" font-family="monospace" font-size="11" x="105" y="29">// Pricing Intelligence SaaS</text>
    <text fill="#6b7a99" font-family="monospace" font-size="10.5" x="18" y="52">LLM-based HTML→JSON pricing extraction</text>
    <text fill="#6b7a99" font-family="monospace" font-size="10.5" x="18" y="67">Tracks competitor changes over time</text>
    <text fill="#6b7a99" font-family="monospace" font-size="10.5" x="18" y="82">Works on any pricing page, zero selectors</text>
    <rect fill="#1a1f35" x="18" y="98" width="56" height="20" rx="4"/><text fill="#ff6ac1" font-family="monospace" font-size="9.5" x="24" y="112">Next.js</text>
    <rect fill="#1a1f35" x="80" y="98" width="56" height="20" rx="4"/><text fill="#ff6ac1" font-family="monospace" font-size="9.5" x="86" y="112">FastAPI</text>
    <rect fill="#1a1f35" x="142" y="98" width="80" height="20" rx="4"/><text fill="#ff6ac1" font-family="monospace" font-size="9.5" x="148" y="112">Playwright</text>
    <rect fill="#1a1f35" x="228" y="98" width="78" height="20" rx="4"/><text fill="#ff6ac1" font-family="monospace" font-size="9.5" x="234" y="112">Claude API</text>
  </g>

  <!-- ═══ CARD 3: NEXUS ═══ -->
  <g transform="translate(20, 170)">
    <rect fill="url(#card1)" width="395" height="140" rx="8"/>
    <rect x="0.5" y="0.5" width="394" height="139" rx="8" fill="none" stroke="#1e2a45" stroke-width="0.5"/>
    <rect fill="url(#accent3)" width="395" height="2.5" rx="8"/>
    <rect fill="url(#card1)" y="3" width="395" height="8"/>
    <circle cx="30" cy="30" r="20" fill="#00ff9f" opacity="0.06" filter="url(#softglow)"/>
    <circle cx="18" cy="25" r="4" fill="#00ff9f"/>
    <text fill="#e2e8f0" font-family="monospace" font-weight="bold" font-size="15" x="30" y="29">NEXUS</text>
    <text fill="#3d4f6f" font-family="monospace" font-size="11" x="90" y="29">// Crypto Opportunity Scanner</text>
    <text fill="#6b7a99" font-family="monospace" font-size="10.5" x="18" y="52">11 chart patterns · Smart Money Concepts</text>
    <text fill="#6b7a99" font-family="monospace" font-size="10.5" x="18" y="67">VWAP · Support/Resistance detection</text>
    <text fill="#6b7a99" font-family="monospace" font-size="10.5" x="18" y="82">Live Binance WebSocket · Spot trading</text>
    <rect fill="#1a1f35" x="18" y="98" width="52" height="20" rx="4"/><text fill="#00ff9f" font-family="monospace" font-size="9.5" x="26" y="112">Python</text>
    <rect fill="#1a1f35" x="76" y="98" width="80" height="20" rx="4"/><text fill="#00ff9f" font-family="monospace" font-size="9.5" x="82" y="112">Binance API</text>
    <rect fill="#1a1f35" x="162" y="98" width="80" height="20" rx="4"/><text fill="#00ff9f" font-family="monospace" font-size="9.5" x="168" y="112">WebSockets</text>
    <rect fill="#1a1f35" x="248" y="98" width="100" height="20" rx="4"/><text fill="#00ff9f" font-family="monospace" font-size="9.5" x="254" y="112">Chart Patterns</text>
  </g>

  <!-- ═══ CARD 4: ETA ═══ -->
  <g transform="translate(435, 170)">
    <rect fill="url(#card1)" width="395" height="140" rx="8"/>
    <rect x="0.5" y="0.5" width="394" height="139" rx="8" fill="none" stroke="#1e2a45" stroke-width="0.5"/>
    <rect fill="url(#accent4)" width="395" height="2.5" rx="8"/>
    <rect fill="url(#card1)" y="3" width="395" height="8"/>
    <circle cx="30" cy="30" r="20" fill="#ffbd2e" opacity="0.06" filter="url(#softglow)"/>
    <circle cx="18" cy="25" r="4" fill="#ffbd2e"/>
    <text fill="#e2e8f0" font-family="monospace" font-weight="bold" font-size="15" x="30" y="29">Expert Trade Analyzer</text>
    <text fill="#3d4f6f" font-family="monospace" font-size="11" x="250" y="29">// ETA</text>
    <text fill="#6b7a99" font-family="monospace" font-size="10.5" x="18" y="52">AI-driven trade analysis engine</text>
    <text fill="#6b7a99" font-family="monospace" font-size="10.5" x="18" y="67">Intelligent pattern recognition</text>
    <text fill="#6b7a99" font-family="monospace" font-size="10.5" x="18" y="82">Market insight &amp; signal generation</text>
    <rect fill="#1a1f35" x="18" y="98" width="52" height="20" rx="4"/><text fill="#ffbd2e" font-family="monospace" font-size="9.5" x="30" y="112">Python</text>
    <rect fill="#1a1f35" x="76" y="98" width="28" height="20" rx="4"/><text fill="#ffbd2e" font-family="monospace" font-size="9.5" x="82" y="112">ML</text>
    <rect fill="#1a1f35" x="110" y="98" width="96" height="20" rx="4"/><text fill="#ffbd2e" font-family="monospace" font-size="9.5" x="116" y="112">Financial Data</text>
  </g>

  <!-- ═══ CARD 5: Woven ═══ -->
  <g transform="translate(20, 325)">
    <rect fill="url(#card1)" width="260" height="130" rx="8"/>
    <rect x="0.5" y="0.5" width="259" height="129" rx="8" fill="none" stroke="#1e2a45" stroke-width="0.5"/>
    <rect fill="#1e2a45" width="260" height="2" rx="8"/>
    <circle cx="18" cy="25" r="4" fill="#5a6a8a"/>
    <text fill="#c9d1d9" font-family="monospace" font-weight="bold" font-size="13" x="30" y="28">Woven</text>
    <text fill="#ffbd2e" font-family="monospace" font-size="10" x="82" y="28">★ 5</text>
    <text fill="#5a6a8a" font-family="monospace" font-size="10" x="18" y="48">Collaborative book recommendation</text>
    <text fill="#5a6a8a" font-family="monospace" font-size="10" x="18" y="62">using preference-similarity matching</text>
    <rect fill="#1a1f35" x="18" y="80" width="52" height="18" rx="4"/><text fill="#5a6a8a" font-family="monospace" font-size="9" x="26" y="93">Python</text>
    <rect fill="#1a1f35" x="76" y="80" width="42" height="18" rx="4"/><text fill="#5a6a8a" font-family="monospace" font-size="9" x="82" y="93">Flask</text>
    <rect fill="#1a1f35" x="124" y="80" width="50" height="18" rx="4"/><text fill="#5a6a8a" font-family="monospace" font-size="9" x="130" y="93">ColFil</text>
  </g>

  <!-- ═══ CARD 6: SmartPick ═══ -->
  <g transform="translate(295, 325)">
    <rect fill="url(#card1)" width="260" height="130" rx="8"/>
    <rect x="0.5" y="0.5" width="259" height="129" rx="8" fill="none" stroke="#1e2a45" stroke-width="0.5"/>
    <rect fill="#1e2a45" width="260" height="2" rx="8"/>
    <circle cx="18" cy="25" r="4" fill="#5a6a8a"/>
    <text fill="#c9d1d9" font-family="monospace" font-weight="bold" font-size="13" x="30" y="28">SmartPick</text>
    <text fill="#ffbd2e" font-family="monospace" font-size="10" x="105" y="28">★ 2</text>
    <text fill="#5a6a8a" font-family="monospace" font-size="10" x="18" y="48">Genetic algorithm book recommender</text>
    <text fill="#5a6a8a" font-family="monospace" font-size="10" x="18" y="62">Fitness-evolved personalized picks</text>
    <rect fill="#1a1f35" x="18" y="80" width="52" height="18" rx="4"/><text fill="#5a6a8a" font-family="monospace" font-size="9" x="26" y="93">Python</text>
    <rect fill="#1a1f35" x="76" y="80" width="72" height="18" rx="4"/><text fill="#5a6a8a" font-family="monospace" font-size="9" x="82" y="93">Genetic Alg</text>
  </g>

  <!-- ═══ CARD 7: GAN Recommender ═══ -->
  <g transform="translate(570, 325)">
    <rect fill="url(#card1)" width="260" height="130" rx="8"/>
    <rect x="0.5" y="0.5" width="259" height="129" rx="8" fill="none" stroke="#1e2a45" stroke-width="0.5"/>
    <rect fill="#1e2a45" width="260" height="2" rx="8"/>
    <circle cx="18" cy="25" r="4" fill="#5a6a8a"/>
    <text fill="#c9d1d9" font-family="monospace" font-weight="bold" font-size="13" x="30" y="28">GAN Recommender</text>
    <text fill="#ffbd2e" font-family="monospace" font-size="10" x="175" y="28">★ 3</text>
    <text fill="#5a6a8a" font-family="monospace" font-size="10" x="18" y="48">Rec systems via Generative</text>
    <text fill="#5a6a8a" font-family="monospace" font-size="10" x="18" y="62">Adversarial Networks</text>
    <rect fill="#1a1f35" x="18" y="80" width="52" height="18" rx="4"/><text fill="#5a6a8a" font-family="monospace" font-size="9" x="26" y="93">Python</text>
    <rect fill="#1a1f35" x="76" y="80" width="60" height="18" rx="4"/><text fill="#5a6a8a" font-family="monospace" font-size="9" x="82" y="93">PyTorch</text>
    <rect fill="#1a1f35" x="142" y="80" width="40" height="18" rx="4"/><text fill="#5a6a8a" font-family="monospace" font-size="9" x="148" y="93">GANs</text>
  </g>

  <!-- ═══ CARD 8: PhishGuard ═══ -->
  <g transform="translate(20, 470)">
    <rect fill="url(#card1)" width="260" height="130" rx="8"/>
    <rect x="0.5" y="0.5" width="259" height="129" rx="8" fill="none" stroke="#1e2a45" stroke-width="0.5"/>
    <rect fill="#1e2a45" width="260" height="2" rx="8"/>
    <circle cx="18" cy="25" r="4" fill="#5a6a8a"/>
    <text fill="#c9d1d9" font-family="monospace" font-weight="bold" font-size="13" x="30" y="28">PhishGuard</text>
    <text fill="#5a6a8a" font-family="monospace" font-size="10" x="18" y="48">ML-powered phishing detection</text>
    <text fill="#5a6a8a" font-family="monospace" font-size="10" x="18" y="62">URL + content + behavior analysis</text>
    <rect fill="#1a1f35" x="18" y="80" width="52" height="18" rx="4"/><text fill="#5a6a8a" font-family="monospace" font-size="9" x="26" y="93">Python</text>
    <rect fill="#1a1f35" x="76" y="80" width="28" height="18" rx="4"/><text fill="#5a6a8a" font-family="monospace" font-size="9" x="82" y="93">ML</text>
    <rect fill="#1a1f35" x="110" y="80" width="72" height="18" rx="4"/><text fill="#5a6a8a" font-family="monospace" font-size="9" x="116" y="93">CyberSec</text>
  </g>

  <!-- ═══ CARD 9: Lipsync ═══ -->
  <g transform="translate(295, 470)">
    <rect fill="url(#card1)" width="260" height="130" rx="8"/>
    <rect x="0.5" y="0.5" width="259" height="129" rx="8" fill="none" stroke="#1e2a45" stroke-width="0.5"/>
    <rect fill="#1e2a45" width="260" height="2" rx="8"/>
    <circle cx="18" cy="25" r="4" fill="#5a6a8a"/>
    <text fill="#c9d1d9" font-family="monospace" font-weight="bold" font-size="13" x="30" y="28">Lipsync</text>
    <text fill="#5a6a8a" font-family="monospace" font-size="10" x="18" y="48">Audio-driven lip sync generation</text>
    <text fill="#5a6a8a" font-family="monospace" font-size="10" x="18" y="62">Deep learning video synthesis</text>
    <rect fill="#1a1f35" x="18" y="80" width="52" height="18" rx="4"/><text fill="#5a6a8a" font-family="monospace" font-size="9" x="26" y="93">Python</text>
    <rect fill="#1a1f35" x="76" y="80" width="90" height="18" rx="4"/><text fill="#5a6a8a" font-family="monospace" font-size="9" x="82" y="93">Deep Learning</text>
  </g>

  <!-- ═══ CARD 10: Image Dehazing ═══ -->
  <g transform="translate(570, 470)">
    <rect fill="url(#card1)" width="260" height="130" rx="8"/>
    <rect x="0.5" y="0.5" width="259" height="129" rx="8" fill="none" stroke="#1e2a45" stroke-width="0.5"/>
    <rect fill="#1e2a45" width="260" height="2" rx="8"/>
    <circle cx="18" cy="25" r="4" fill="#5a6a8a"/>
    <text fill="#c9d1d9" font-family="monospace" font-weight="bold" font-size="13" x="30" y="28">Image Dehazing</text>
    <text fill="#ffbd2e" font-family="monospace" font-size="10" x="155" y="28">★ 1</text>
    <text fill="#5a6a8a" font-family="monospace" font-size="10" x="18" y="48">Satellite image clarity via</text>
    <text fill="#5a6a8a" font-family="monospace" font-size="10" x="18" y="62">advanced dehazing techniques</text>
    <rect fill="#1a1f35" x="18" y="80" width="52" height="18" rx="4"/><text fill="#5a6a8a" font-family="monospace" font-size="9" x="26" y="93">Python</text>
    <rect fill="#1a1f35" x="76" y="80" width="80" height="18" rx="4"/><text fill="#5a6a8a" font-family="monospace" font-size="9" x="82" y="93">TensorFlow</text>
    <rect fill="#1a1f35" x="162" y="80" width="28" height="18" rx="4"/><text fill="#5a6a8a" font-family="monospace" font-size="9" x="168" y="93">CV</text>
  </g>
</svg>
