<svg xmlns="http://www.w3.org/2000/svg" width="850" height="210" viewBox="0 0 850 210">
  <defs>
    <linearGradient id="bg2" x1="0%" y1="0%" x2="100%" y2="100%">
      <stop offset="0%" style="stop-color:#0a0e17"/>
      <stop offset="100%" style="stop-color:#0d1321"/>
    </linearGradient>
  </defs>

  <rect fill="url(#bg2)" width="850" height="210" rx="10"/>
  <rect x="0.5" y="0.5" width="849" height="209" rx="10" fill="none" stroke="#1a2340"/>

  <!-- Row labels and items -->
  <!-- LANGUAGES -->
  <text fill="#3d4f6f" font-family="monospace" font-size="10" x="20" y="28">LANGUAGES</text>
  <rect fill="#111827" x="110" y="14" width="60" height="22" rx="5"/><text fill="#00ff9f" font-family="monospace" font-size="10" x="120" y="29">Python</text>
  <rect fill="#111827" x="176" y="14" width="82" height="22" rx="5"/><text fill="#00ff9f" font-family="monospace" font-size="10" x="186" y="29">TypeScript</text>
  <rect fill="#111827" x="264" y="14" width="82" height="22" rx="5"/><text fill="#00ff9f" font-family="monospace" font-size="10" x="274" y="29">JavaScript</text>
  <rect fill="#111827" x="352" y="14" width="40" height="22" rx="5"/><text fill="#00ff9f" font-family="monospace" font-size="10" x="362" y="29">SQL</text>
  <rect fill="#111827" x="398" y="14" width="22" height="22" rx="5"/><text fill="#00ff9f" font-family="monospace" font-size="10" x="405" y="29">C</text>

  <!-- AI / LLM -->
  <text fill="#3d4f6f" font-family="monospace" font-size="10" x="20" y="58">AI / LLM</text>
  <rect fill="#111827" x="110" y="44" width="72" height="22" rx="5"/><text fill="#7b61ff" font-family="monospace" font-size="10" x="120" y="59">LangGraph</text>
  <rect fill="#111827" x="188" y="44" width="82" height="22" rx="5"/><text fill="#7b61ff" font-family="monospace" font-size="10" x="198" y="59">Claude API</text>
  <rect fill="#111827" x="276" y="44" width="72" height="22" rx="5"/><text fill="#7b61ff" font-family="monospace" font-size="10" x="286" y="59">LangChain</text>
  <rect fill="#111827" x="354" y="44" width="56" height="22" rx="5"/><text fill="#7b61ff" font-family="monospace" font-size="10" x="364" y="59">OpenCV</text>
  <rect fill="#111827" x="416" y="44" width="86" height="22" rx="5"/><text fill="#7b61ff" font-family="monospace" font-size="10" x="426" y="59">HuggingFace</text>

  <!-- FRONTEND -->
  <text fill="#3d4f6f" font-family="monospace" font-size="10" x="20" y="88">FRONTEND</text>
  <rect fill="#111827" x="110" y="74" width="48" height="22" rx="5"/><text fill="#ff6ac1" font-family="monospace" font-size="10" x="120" y="89">React</text>
  <rect fill="#111827" x="164" y="74" width="56" height="22" rx="5"/><text fill="#ff6ac1" font-family="monospace" font-size="10" x="174" y="89">Next.js</text>
  <rect fill="#111827" x="226" y="74" width="66" height="22" rx="5"/><text fill="#ff6ac1" font-family="monospace" font-size="10" x="236" y="89">Tailwind</text>
  <rect fill="#111827" x="298" y="74" width="66" height="22" rx="5"/><text fill="#ff6ac1" font-family="monospace" font-size="10" x="308" y="89">HTML/CSS</text>

  <!-- BACKEND -->
  <text fill="#3d4f6f" font-family="monospace" font-size="10" x="20" y="118">BACKEND</text>
  <rect fill="#111827" x="110" y="104" width="56" height="22" rx="5"/><text fill="#00b4d8" font-family="monospace" font-size="10" x="120" y="119">FastAPI</text>
  <rect fill="#111827" x="172" y="104" width="56" height="22" rx="5"/><text fill="#00b4d8" font-family="monospace" font-size="10" x="182" y="119">Node.js</text>
  <rect fill="#111827" x="234" y="104" width="48" height="22" rx="5"/><text fill="#00b4d8" font-family="monospace" font-size="10" x="244" y="119">Flask</text>
  <rect fill="#111827" x="288" y="104" width="72" height="22" rx="5"/><text fill="#00b4d8" font-family="monospace" font-size="10" x="298" y="119">REST APIs</text>

  <!-- DATA -->
  <text fill="#3d4f6f" font-family="monospace" font-size="10" x="20" y="148">DATA</text>
  <rect fill="#111827" x="110" y="134" width="82" height="22" rx="5"/><text fill="#ffbd2e" font-family="monospace" font-size="10" x="120" y="149">PostgreSQL</text>
  <rect fill="#111827" x="198" y="134" width="82" height="22" rx="5"/><text fill="#ffbd2e" font-family="monospace" font-size="10" x="208" y="149">YugabyteDB</text>
  <rect fill="#111827" x="286" y="134" width="66" height="22" rx="5"/><text fill="#ffbd2e" font-family="monospace" font-size="10" x="296" y="149">Supabase</text>
  <rect fill="#111827" x="358" y="134" width="48" height="22" rx="5"/><text fill="#ffbd2e" font-family="monospace" font-size="10" x="368" y="149">Redis</text>

  <!-- INFRA & ML -->
  <text fill="#3d4f6f" font-family="monospace" font-size="10" x="20" y="178">INFRA</text>
  <rect fill="#111827" x="110" y="164" width="52" height="22" rx="5"/><text fill="#8b95a8" font-family="monospace" font-size="10" x="120" y="179">Docker</text>
  <rect fill="#111827" x="168" y="164" width="52" height="22" rx="5"/><text fill="#8b95a8" font-family="monospace" font-size="10" x="178" y="179">Vercel</text>
  <rect fill="#111827" x="226" y="164" width="78" height="22" rx="5"/><text fill="#8b95a8" font-family="monospace" font-size="10" x="236" y="179">Playwright</text>
  <rect fill="#111827" x="310" y="164" width="30" height="22" rx="5"/><text fill="#8b95a8" font-family="monospace" font-size="10" x="318" y="179">Git</text>

  <text fill="#3d4f6f" font-family="monospace" font-size="10" x="460" y="178">ML/DL</text>
  <rect fill="#111827" x="520" y="164" width="82" height="22" rx="5"/><text fill="#8b95a8" font-family="monospace" font-size="10" x="530" y="179">TensorFlow</text>
  <rect fill="#111827" x="608" y="164" width="92" height="22" rx="5"/><text fill="#8b95a8" font-family="monospace" font-size="10" x="618" y="179">scikit-learn</text>
  <rect fill="#111827" x="706" y="164" width="72" height="22" rx="5"/><text fill="#8b95a8" font-family="monospace" font-size="10" x="716" y="179">Binance</text>

  <!-- Decorative vertical separator -->
  <line x1="100" y1="14" x2="100" y2="190" stroke="#1a2340" stroke-width="1" stroke-dasharray="2,4"/>
</svg>
